{"glyphs":{"0":{"ha":688,"x_min":0,"x_max":0,"o":""},"1":{"ha":688,"x_min":0,"x_max":0,"o":""},"2":{"ha":688,"x_min":0,"x_max":0,"o":""},"3":{"ha":688,"x_min":0,"x_max":0,"o":""},"4":{"ha":688,"x_min":0,"x_max":0,"o":""},"5":{"ha":688,"x_min":0,"x_max":0,"o":""},"6":{"ha":688,"x_min":0,"x_max":0,"o":""},"7":{"ha":688,"x_min":0,"x_max":0,"o":""},"8":{"ha":688,"x_min":0,"x_max":0,"o":""},"9":{"ha":688,"x_min":0,"x_max":0,"o":""}," ":{"ha":345,"x_min":0,"x_max":0,"o":""},"!":{"ha":456,"x_min":0,"x_max":0,"o":""},"\"":{"ha":456,"x_min":0,"x_max":0,"o":""},"#":{"ha":906,"x_min":0,"x_max":0,"o":""},"$":{"ha":688,"x_min":0,"x_max":0,"o":""},"%":{"ha":1092,"x_min":0,"x_max":0,"o":""},"&":{"ha":1141,"x_min":0,"x_max":0,"o":""},"'":{"ha":235,"x_min":0,"x_max":0,"o":""},"(":{"ha":514,"x_min":0,"x_max":0,"o":""},")":{"ha":514,"x_min":0,"x_max":0,"o":""},"*":{"ha":694,"x_min":0,"x_max":0,"o":""},"+":{"ha":688,"x_min":0,"x_max":0,"o":""},",":{"ha":378,"x_min":0,"x_max":0,"o":""},"-":{"ha":454,"x_min":0,"x_max":0,"o":""},".":{"ha":378,"x_min":0,"x_max":0,"o":""},"/":{"ha":386,"x_min":0,"x_max":0,"o":""},":":{"ha":378,"x_min":0,"x_max":0,"o":""},";":{"ha":378,"x_min":0,"x_max":0,"o":""},"<":{"ha":688,"x_min":0,"x_max":0,"o":""},"=":{"ha":688,"x_min":0,"x_max":0,"o":""},">":{"ha":688,"x_min":0,"x_max":0,"o":""},"?":{"ha":507,"x_min":0,"x_max":0,"o":""},"@":{"ha":1369,"x_min":0,"x_max":0,"o":""},"A":{"ha":1289,"x_min":52,"x_max":1237,"o":"m 583 1166 l 689 1166 q 974 1072 815 1166 q 1213 751 1147 951 q 1237 608 1237 669 l 1237 551 q 1196 372 1237 479 q 979 103 1146 218 q 711 0 809 0 l 600 0 q 301 103 469 0 q 73 407 142 208 q 52 540 52 481 l 52 624 q 182 963 52 794 q 323 1082 275 1061 q 496 1153 389 1126 q 583 1166 569 1166 m 165 594 q 312 258 165 421 q 640 114 470 114 l 659 114 q 966 244 811 114 q 1099 469 1067 351 q 1118 581 1118 533 q 971 925 1118 778 q 629 1055 821 1055 q 296 906 454 1055 q 165 594 165 761 m 393 898 l 437 898 q 556 814 511 898 q 567 754 567 791 q 475 624 567 658 q 431 616 457 616 l 396 616 q 282 711 319 616 q 277 757 277 732 l 277 765 q 377 895 277 855 l 393 898 m 871 898 l 914 898 q 1034 814 989 898 q 1044 754 1044 791 q 952 624 1044 658 q 909 616 935 616 l 873 616 q 760 711 796 616 q 754 757 754 732 l 754 765 q 854 895 754 855 l 871 898 m 814 513 l 844 513 q 876 472 870 513 l 876 431 q 749 236 876 301 q 659 214 707 214 l 624 214 q 450 320 522 214 q 412 472 414 407 l 412 483 q 426 496 412 486 l 461 496 q 496 418 496 496 q 627 288 533 288 l 643 288 q 792 396 743 288 q 803 445 803 426 q 792 488 792 480 l 792 494 q 814 513 798 504 z "},"B":{"ha":1289,"x_min":52,"x_max":1237,"o":"m 589 1166 l 689 1166 q 1012 1044 837 1166 q 1177 838 1141 928 q 1237 613 1237 707 l 1237 556 q 1196 374 1237 475 q 1074 179 1185 305 q 751 5 922 40 q 711 0 726 0 l 600 0 q 317 92 478 0 q 73 407 144 199 q 52 532 52 484 l 52 632 q 144 911 52 760 q 317 1080 219 1021 q 507 1153 422 1141 q 589 1166 553 1166 m 165 597 q 247 339 165 471 q 518 133 334 201 q 640 114 585 114 l 659 114 q 974 252 817 114 q 1093 453 1061 348 q 1118 578 1118 529 q 974 922 1118 776 q 738 1042 861 1021 q 629 1055 709 1050 q 290 901 450 1055 q 165 597 165 755 m 524 844 l 553 844 q 572 808 572 832 l 572 787 q 488 605 572 699 q 437 583 454 583 l 404 583 q 320 670 350 583 q 309 760 309 707 l 309 768 q 326 817 312 817 l 369 817 q 385 730 378 817 q 442 662 402 662 q 494 817 494 724 q 524 844 503 844 m 920 838 l 955 838 q 974 800 966 838 q 917 632 974 735 q 836 589 875 589 l 787 589 q 705 675 730 589 q 700 738 700 705 l 700 743 q 730 827 711 827 l 770 827 q 779 819 774 827 l 779 751 q 776 749 779 749 l 779 743 l 779 732 q 814 662 779 681 l 822 662 q 892 798 871 662 q 920 838 910 836 m 423 513 q 507 491 507 502 q 475 439 496 439 l 472 439 q 415 445 448 445 q 505 317 415 399 q 624 271 581 271 l 627 271 q 779 307 731 293 q 884 423 847 349 l 884 429 q 879 434 884 434 l 841 429 q 803 472 807 429 l 803 477 q 854 507 826 507 l 898 507 q 987 458 957 507 q 1023 396 1023 424 l 1023 393 q 1012 361 1018 361 l 968 361 l 949 377 q 773 220 895 264 q 656 198 710 198 l 618 198 q 366 369 473 198 q 339 355 360 355 l 315 355 q 293 385 293 371 l 293 393 q 393 513 293 479 l 423 513 z "},"C":{"ha":1289,"x_min":52,"x_max":1237,"o":"m 589 1166 l 689 1166 q 1012 1044 837 1166 q 1177 838 1141 928 q 1237 613 1237 707 l 1237 556 q 1196 374 1237 475 q 1074 179 1185 305 q 751 5 922 40 q 711 0 726 0 l 600 0 q 317 92 478 0 q 73 407 144 199 q 52 532 52 484 l 52 632 q 155 928 52 768 q 304 1072 224 1020 q 564 1164 422 1147 q 589 1166 564 1166 m 165 597 q 247 339 165 471 q 518 133 334 201 q 640 114 585 114 l 659 114 q 974 252 817 114 q 1093 453 1061 348 q 1118 578 1118 529 q 974 922 1118 776 q 738 1042 861 1021 q 629 1055 709 1050 q 290 901 450 1055 q 165 597 165 755 m 429 936 l 450 936 q 589 871 589 897 l 589 849 q 562 822 583 822 l 537 822 q 426 852 523 822 q 339 779 389 852 q 317 768 328 768 l 298 768 q 271 792 271 772 l 271 795 q 382 925 271 852 q 429 936 410 936 m 825 925 l 846 925 q 990 871 947 907 q 1006 841 1006 853 l 1006 827 q 974 795 1000 795 l 952 795 q 871 838 946 795 q 833 852 847 852 l 830 852 q 760 795 810 852 l 741 789 l 708 789 q 694 811 694 796 l 694 822 q 800 920 694 875 q 825 925 818 925 m 423 762 l 458 762 q 562 675 538 762 l 562 651 q 477 532 562 566 q 464 529 473 529 l 429 529 q 312 616 338 529 q 309 635 309 619 l 309 651 q 396 760 309 730 q 423 762 410 762 m 814 757 q 939 697 882 757 q 947 665 947 673 l 947 656 q 895 545 947 576 q 827 524 842 524 l 806 524 q 713 575 745 524 q 705 616 705 600 l 705 646 q 770 757 705 725 l 814 757 m 393 648 q 453 608 393 614 l 458 608 q 480 654 471 608 l 480 659 q 420 684 459 684 q 393 648 393 684 m 792 678 q 784 635 784 650 q 806 613 787 613 l 841 613 q 863 635 863 613 q 792 678 863 660 m 808 491 l 838 491 q 871 442 868 491 l 871 415 q 743 214 871 278 q 654 193 702 193 l 618 193 q 442 301 516 193 q 407 450 407 397 l 407 461 q 420 475 407 465 l 456 475 q 491 396 491 473 q 621 266 528 266 l 637 266 q 746 312 695 266 q 798 423 798 370 q 787 472 787 455 q 808 491 793 482 z "},"D":{"ha":1289,"x_min":52,"x_max":1237,"o":"m 589 1166 l 689 1166 q 1012 1044 837 1166 q 1177 838 1141 928 q 1237 613 1237 707 l 1237 556 q 1196 374 1237 475 q 1074 179 1185 305 q 751 5 922 40 q 711 0 726 0 l 600 0 q 317 92 478 0 q 73 407 144 199 q 52 532 52 484 l 52 632 q 144 911 52 760 q 317 1080 219 1021 q 507 1153 422 1141 q 589 1166 553 1166 m 165 597 q 247 339 165 471 q 518 133 334 201 q 640 114 585 114 l 659 114 q 974 252 817 114 q 1093 453 1061 348 q 1118 578 1118 529 q 974 922 1118 776 q 738 1042 861 1021 q 629 1055 709 1050 q 290 901 450 1055 q 165 597 165 755 m 391 806 q 458 746 434 806 l 458 722 q 391 670 458 687 l 372 670 q 309 724 342 670 l 309 746 q 355 806 309 771 l 391 806 m 781 806 q 849 746 825 806 l 849 722 q 781 670 849 687 l 762 670 q 700 724 732 670 l 700 746 q 746 806 700 771 l 781 806 m 757 637 l 784 637 q 833 572 825 637 q 836 551 836 553 q 827 475 836 549 q 914 361 827 469 q 936 296 936 325 l 936 285 q 854 203 936 235 q 808 193 829 193 l 784 193 q 662 328 705 193 l 659 328 q 610 323 632 323 l 543 323 q 458 355 500 327 q 372 475 378 429 q 358 532 366 487 l 358 586 q 380 600 365 600 l 407 600 q 450 480 422 600 q 564 396 485 396 l 572 396 q 722 456 657 396 q 760 548 760 499 q 743 589 751 578 l 743 591 q 757 637 745 637 z "},"E":{"ha":1289,"x_min":52,"x_max":1237,"o":"m 583 1166 l 689 1166 q 1012 1044 837 1166 q 1177 838 1141 928 q 1237 613 1237 707 l 1237 556 q 1196 374 1237 475 q 1074 179 1185 305 q 751 5 922 40 q 711 0 726 0 l 600 0 q 301 103 469 0 q 73 407 142 208 q 52 540 52 481 l 52 624 q 182 963 52 794 q 323 1082 275 1061 q 496 1153 389 1126 q 583 1166 569 1166 m 165 594 q 312 258 165 421 q 640 114 470 114 l 659 114 q 974 252 817 114 q 1093 453 1061 348 q 1118 578 1118 529 q 974 922 1118 776 q 738 1042 861 1021 q 629 1055 712 1050 q 296 906 454 1055 q 165 594 165 761 m 336 925 l 361 925 q 439 868 372 925 q 646 730 531 801 q 917 914 648 734 l 944 914 q 979 865 979 886 l 979 854 q 876 781 975 847 q 716 667 870 774 l 716 665 q 892 510 874 532 l 892 472 q 865 458 886 458 l 844 458 q 643 621 823 458 q 464 496 543 569 q 391 448 404 448 l 366 448 q 336 502 336 463 l 336 507 q 518 646 336 534 l 570 681 q 320 865 405 787 q 315 882 315 874 l 315 890 q 336 925 315 911 m 860 404 l 860 369 q 724 165 860 233 q 659 155 690 155 l 627 155 q 429 298 492 155 q 418 339 418 328 l 418 377 q 860 404 418 388 z "},"F":{"ha":1289,"x_min":52,"x_max":1237,"o":"m 589 1166 l 689 1166 q 1012 1044 837 1166 q 1177 838 1141 928 q 1237 613 1237 707 l 1237 556 q 1196 374 1237 475 q 1074 179 1185 305 q 751 5 922 40 q 711 0 726 0 l 600 0 q 317 92 478 0 q 73 407 144 199 q 52 532 52 484 l 52 632 q 144 911 52 760 q 317 1080 219 1021 q 507 1153 422 1141 q 589 1166 553 1166 m 165 597 q 247 339 165 471 q 518 133 334 201 q 640 114 585 114 l 659 114 q 974 252 817 114 q 1093 453 1061 348 q 1118 578 1118 529 q 974 922 1118 776 q 738 1042 861 1021 q 629 1055 709 1050 q 290 901 450 1055 q 165 597 165 755 m 453 806 l 486 806 q 567 730 541 806 l 567 703 q 477 616 567 629 l 445 616 q 372 681 396 616 q 369 708 369 695 l 369 719 q 431 803 369 777 q 453 806 442 806 m 876 806 l 909 806 q 990 730 964 806 l 990 703 q 901 616 990 629 l 868 616 q 795 681 819 616 q 792 708 792 695 l 792 719 q 854 803 792 777 q 876 806 865 806 m 477 453 l 863 423 l 871 412 l 871 385 q 792 241 871 319 q 667 193 729 193 l 624 193 q 488 258 552 193 q 429 407 429 323 l 429 439 q 477 453 429 453 z "},"G":{"ha":1289,"x_min":52,"x_max":1237,"o":"m 589 1166 l 689 1166 q 1012 1044 837 1166 q 1177 838 1141 928 q 1237 613 1237 707 l 1237 556 q 1196 374 1237 475 q 1074 179 1185 305 q 751 5 922 40 q 711 0 726 0 l 600 0 q 317 92 478 0 q 73 407 144 199 q 52 532 52 484 l 52 632 q 144 911 52 760 q 317 1080 219 1021 q 507 1153 422 1141 q 589 1166 553 1166 m 165 597 q 247 339 165 471 q 518 133 334 201 q 640 114 585 114 l 659 114 q 974 252 817 114 q 1093 453 1061 348 q 1118 578 1118 529 q 974 922 1118 776 q 738 1042 861 1021 q 629 1055 709 1050 q 290 901 450 1055 q 165 597 165 755 m 429 936 l 450 936 q 589 871 589 897 l 589 849 q 562 822 583 822 l 537 822 q 426 852 523 822 q 339 779 389 852 q 317 768 328 768 l 298 768 q 271 792 271 772 l 271 795 q 382 925 271 852 q 429 936 410 936 m 825 925 l 846 925 q 990 871 947 907 q 1006 841 1006 853 l 1006 827 q 974 795 1000 795 l 952 795 q 871 838 946 795 q 833 852 847 852 l 830 852 q 760 795 810 852 l 741 789 l 708 789 q 694 811 694 796 l 694 822 q 800 920 694 875 q 825 925 818 925 m 423 762 l 458 762 q 562 675 538 762 l 562 651 q 477 532 562 566 q 464 529 473 529 l 429 529 q 312 616 338 529 q 309 635 309 619 l 309 651 q 396 760 309 730 q 423 762 410 762 m 814 757 q 939 697 882 757 q 947 665 947 673 l 947 656 q 895 545 947 576 q 827 524 842 524 l 806 524 q 713 575 745 524 q 705 616 705 600 l 705 646 q 770 757 705 725 l 814 757 m 393 648 q 453 608 393 614 l 458 608 q 480 654 471 608 l 480 659 q 420 684 459 684 q 393 648 393 684 m 792 678 q 784 635 784 650 q 806 613 787 613 l 841 613 q 863 635 863 613 q 792 678 863 660 m 477 453 l 863 423 l 871 412 l 871 385 q 792 241 871 319 q 667 193 729 193 l 624 193 q 488 258 552 193 q 429 407 429 323 l 429 439 q 477 453 429 453 z "},"H":{"ha":1289,"x_min":52,"x_max":1237,"o":"m 589 1166 l 689 1166 q 1012 1044 837 1166 q 1177 838 1141 928 q 1237 613 1237 707 l 1237 556 q 1196 374 1237 475 q 1074 179 1185 305 q 751 5 922 40 q 711 0 726 0 l 600 0 q 317 92 478 0 q 73 407 144 199 q 52 532 52 484 l 52 632 q 144 911 52 760 q 317 1080 219 1021 q 507 1153 422 1141 q 589 1166 553 1166 m 165 597 q 247 339 165 471 q 518 133 334 201 q 640 114 585 114 l 659 114 q 974 252 817 114 q 1093 453 1061 348 q 1118 578 1118 529 q 974 922 1118 776 q 738 1042 861 1021 q 629 1055 709 1050 q 290 901 450 1055 q 165 597 165 755 m 404 844 l 431 844 q 559 705 507 844 q 572 640 572 668 l 572 618 q 545 583 569 583 l 524 583 q 491 651 491 583 q 439 765 491 703 l 437 765 q 377 627 387 765 q 369 610 377 610 l 326 610 q 309 659 312 610 l 309 667 q 372 833 309 795 q 404 844 390 844 m 787 838 l 836 838 q 971 651 932 838 q 974 627 974 641 l 974 621 q 955 589 965 589 l 920 589 q 868 727 900 589 q 825 765 847 765 l 822 765 q 779 700 779 754 l 779 608 q 770 600 779 604 l 730 600 q 700 684 711 600 l 700 689 q 773 836 700 815 q 787 838 778 838 m 423 513 q 507 491 507 502 q 475 439 496 439 l 472 439 q 415 445 448 445 q 505 317 415 399 q 624 271 581 271 l 627 271 q 779 307 731 293 q 884 423 847 349 l 884 429 q 879 434 884 434 l 841 429 q 803 472 807 429 l 803 477 q 854 507 826 507 l 898 507 q 987 458 957 507 q 1023 396 1023 424 l 1023 393 q 1012 361 1018 361 l 968 361 l 949 377 q 773 220 895 264 q 656 198 710 198 l 618 198 q 366 369 473 198 q 339 355 360 355 l 315 355 q 293 385 293 371 l 293 393 q 393 513 293 479 l 423 513 z "},"I":{"ha":1289,"x_min":52,"x_max":1237,"o":"m 589 1166 l 689 1166 q 1012 1044 837 1166 q 1177 838 1141 928 q 1237 613 1237 707 l 1237 556 q 1196 374 1237 475 q 1074 179 1185 305 q 751 5 922 40 q 711 0 726 0 l 600 0 q 317 92 478 0 q 73 407 144 199 q 52 532 52 484 l 52 632 q 155 928 52 768 q 304 1072 225 1021 q 564 1164 422 1147 q 589 1166 564 1166 m 165 597 q 247 339 165 471 q 518 133 334 201 q 640 114 585 114 l 659 114 q 974 252 817 114 q 1093 453 1061 348 q 1118 578 1118 529 q 974 922 1118 776 q 738 1042 861 1021 q 629 1055 709 1050 q 290 901 450 1055 q 165 597 165 755 m 800 914 l 846 914 q 941 776 859 906 q 979 705 979 719 l 979 694 q 944 665 979 669 l 930 665 q 838 784 900 665 l 838 787 l 833 787 q 757 665 783 665 l 743 665 q 705 711 715 665 l 705 722 q 787 892 705 728 q 800 914 787 907 m 418 909 l 442 909 q 572 708 486 909 q 578 703 578 707 l 578 694 q 543 659 578 672 l 529 659 q 450 781 498 659 l 448 781 q 369 659 413 707 l 342 659 q 309 703 315 659 l 309 705 q 396 873 309 724 q 418 909 410 908 m 307 529 l 336 529 q 399 483 354 529 l 448 448 q 643 374 559 374 q 770 404 762 404 q 922 524 811 424 l 966 524 q 979 499 974 524 l 979 486 q 930 418 979 464 q 743 290 883 335 q 678 279 715 279 l 640 279 q 331 420 484 279 q 277 499 277 486 q 307 529 277 522 z "},"J":{"ha":1289,"x_min":52,"x_max":1237,"o":"m 583 1166 l 689 1166 q 974 1072 815 1166 q 1213 751 1147 951 q 1237 608 1237 669 l 1237 551 q 1196 372 1237 479 q 979 103 1146 218 q 711 0 809 0 l 600 0 q 301 103 469 0 q 73 407 142 208 q 52 540 52 481 l 52 624 q 182 963 52 794 q 323 1082 275 1061 q 496 1153 389 1126 q 583 1166 569 1166 m 165 594 q 312 258 165 421 q 640 114 470 114 l 659 114 q 966 244 811 114 q 1099 469 1067 351 q 1118 581 1118 533 q 971 925 1118 778 q 629 1055 821 1055 q 296 906 454 1055 q 165 594 165 761 m 800 914 l 846 914 q 941 776 859 906 q 979 705 979 719 l 979 694 q 944 665 979 669 l 930 665 q 838 787 897 665 l 833 787 q 757 665 783 665 l 743 665 q 705 711 716 665 l 705 722 q 787 892 705 728 q 800 914 787 907 m 418 909 l 442 909 q 562 730 485 909 q 578 703 564 729 l 578 694 q 543 659 578 672 l 524 659 q 450 779 496 669 l 450 781 l 448 781 q 366 659 412 701 l 336 659 q 309 703 309 675 l 309 705 q 396 873 309 724 q 418 909 406 902 m 537 545 l 559 545 q 627 423 576 539 l 632 423 q 716 545 652 484 l 743 545 q 773 515 766 545 l 773 505 q 643 296 764 469 l 594 296 q 559 366 585 298 q 499 488 499 477 l 499 499 q 537 545 509 545 z "},"K":{"ha":1289,"x_min":52,"x_max":1237,"o":"m 589 1166 l 689 1166 q 1012 1044 837 1166 q 1177 838 1141 928 q 1237 613 1237 707 l 1237 556 q 1196 374 1237 475 q 1074 179 1185 305 q 751 5 922 40 q 711 0 726 0 l 600 0 q 317 92 478 0 q 73 407 144 199 q 52 532 52 484 l 52 632 q 144 911 52 760 q 317 1080 219 1021 q 507 1153 422 1141 q 589 1166 553 1166 m 165 597 q 247 339 165 471 q 518 133 334 201 q 640 114 585 114 l 659 114 q 974 252 817 114 q 1093 453 1061 348 q 1118 578 1118 529 q 974 922 1118 776 q 738 1042 861 1021 q 629 1055 709 1050 q 290 901 450 1055 q 165 597 165 755 m 391 806 q 458 746 434 806 l 458 722 q 391 670 458 687 l 372 670 q 309 724 342 670 l 309 746 q 355 806 309 771 l 391 806 m 781 806 q 849 746 825 806 l 849 722 q 781 670 849 687 l 762 670 q 700 724 732 670 l 700 746 q 746 806 700 771 l 781 806 m 925 518 q 952 488 952 507 l 952 475 q 928 448 949 448 l 895 448 q 882 385 890 448 q 656 193 815 193 l 618 193 q 404 320 490 193 q 380 410 387 358 l 334 410 q 309 445 309 429 l 309 483 q 317 491 309 487 l 480 491 q 507 464 507 486 l 507 450 q 453 420 507 420 q 488 331 464 370 q 635 260 565 260 q 800 366 726 260 q 814 410 814 401 l 814 442 l 806 442 q 754 480 754 452 l 754 488 q 795 515 754 515 q 925 518 837 515 z "},"L":{"ha":1289,"x_min":52,"x_max":1237,"o":"m 589 1166 l 689 1166 q 1012 1044 837 1166 q 1177 838 1141 928 q 1237 613 1237 707 l 1237 556 q 1196 374 1237 475 q 1074 179 1185 305 q 751 5 922 40 q 711 0 726 0 l 600 0 q 301 103 469 0 q 73 407 142 208 q 52 540 52 481 l 52 624 q 182 963 52 794 q 382 1115 289 1078 q 589 1166 506 1164 m 165 594 q 312 258 165 421 q 640 114 470 114 l 659 114 q 974 252 817 114 q 1093 453 1061 348 q 1118 578 1118 529 q 974 922 1118 776 q 738 1042 861 1021 q 629 1055 709 1050 q 296 906 454 1055 q 165 594 165 761 m 955 833 q 990 798 990 823 l 990 789 q 814 600 990 762 q 792 583 814 587 l 776 583 q 743 627 751 583 l 743 635 q 776 681 743 665 q 922 833 918 812 l 955 833 m 369 827 l 396 827 q 553 640 489 734 l 556 627 l 556 613 q 524 589 542 589 l 507 589 q 393 708 474 597 q 342 787 342 775 l 342 811 q 369 827 355 827 m 830 448 l 863 448 q 898 401 890 448 l 898 393 q 836 266 898 351 q 673 193 734 193 l 646 193 q 450 307 528 193 q 429 393 439 333 l 429 407 q 458 442 435 442 l 477 442 q 543 350 505 442 q 651 293 582 293 l 667 293 q 808 393 777 293 q 814 415 814 404 l 814 431 q 830 448 814 435 z "},"M":{"ha":1289,"x_min":52,"x_max":1237,"o":"m 583 1166 l 689 1166 q 974 1072 815 1166 q 1213 751 1147 951 q 1237 608 1237 669 l 1237 551 q 1196 372 1237 479 q 979 103 1146 218 q 711 0 809 0 l 600 0 q 301 103 469 0 q 73 407 142 208 q 52 540 52 481 l 52 624 q 182 963 52 794 q 323 1082 275 1061 q 496 1153 389 1126 q 583 1166 569 1166 m 165 594 q 312 258 165 421 q 640 114 470 114 l 659 114 q 966 244 811 114 q 1093 453 1059 342 q 1118 581 1118 524 q 971 925 1118 778 q 629 1055 821 1055 q 296 906 454 1055 q 165 594 165 761 m 420 920 l 458 920 q 480 879 480 905 l 480 852 q 540 841 480 846 q 551 827 551 829 l 551 803 q 526 781 551 781 l 502 781 q 453 762 453 779 q 564 673 564 736 l 564 665 q 515 589 564 608 q 505 581 515 585 q 510 548 510 562 l 510 526 q 486 513 510 518 l 453 513 q 434 570 446 513 q 401 605 424 587 l 401 632 q 412 656 401 653 l 434 656 q 464 643 441 656 q 496 673 496 653 q 445 694 486 689 q 385 749 385 694 l 385 765 q 420 830 385 775 q 410 879 410 858 l 410 890 q 420 920 410 901 m 779 909 l 800 909 q 827 838 827 909 l 836 833 l 846 833 q 903 798 903 833 l 903 776 q 882 762 897 762 q 827 768 868 762 q 803 751 806 761 l 803 749 l 808 741 l 814 743 l 849 743 q 898 675 898 731 l 898 656 q 854 591 898 641 l 854 589 q 857 562 854 576 q 841 529 857 538 l 803 529 q 779 581 798 530 q 743 624 743 621 q 754 675 747 675 l 770 675 q 803 654 783 675 q 833 673 819 654 q 741 716 741 692 q 735 743 736 716 l 735 757 q 770 814 735 775 q 760 887 760 857 l 760 890 q 779 909 760 909 m 830 448 l 871 448 q 898 396 898 432 l 898 393 q 846 279 898 357 q 686 193 776 211 l 646 193 q 450 307 528 193 q 429 393 439 333 l 429 407 q 458 442 435 442 l 477 442 q 543 350 505 442 q 651 293 582 293 l 667 293 q 808 393 777 293 q 814 415 814 404 l 814 431 q 830 448 814 435 z "},"N":{"ha":1289,"x_min":52,"x_max":1237,"o":"m 583 1166 l 689 1166 q 974 1072 815 1166 q 1213 751 1147 951 q 1237 608 1237 669 l 1237 551 q 1196 372 1237 479 q 979 103 1146 218 q 711 0 809 0 l 600 0 q 301 103 469 0 q 73 407 142 208 q 52 540 52 481 l 52 624 q 182 963 52 794 q 323 1082 275 1061 q 496 1153 389 1126 q 583 1166 569 1166 m 165 594 q 312 258 165 421 q 640 114 470 114 l 659 114 q 966 244 811 114 q 1093 453 1059 342 q 1118 581 1118 524 q 971 925 1118 778 q 629 1055 821 1055 q 296 906 454 1055 q 165 594 165 761 m 399 906 q 445 892 406 906 q 488 906 480 906 l 505 906 q 589 849 564 906 q 591 825 591 834 l 591 822 q 505 684 591 724 q 486 662 505 680 l 483 651 q 494 597 494 613 l 494 591 q 472 570 494 570 l 453 570 q 423 608 430 570 q 363 705 416 641 q 312 811 312 760 l 312 827 q 372 906 312 889 l 399 906 m 779 906 l 795 906 q 838 892 803 906 q 884 906 878 906 l 906 906 q 971 827 961 906 l 971 808 q 920 705 971 759 q 852 583 861 634 q 830 570 847 570 l 811 570 q 789 594 789 570 l 789 597 q 800 654 789 609 q 732 713 792 677 q 692 830 692 751 q 779 906 692 892 m 396 844 q 380 808 384 829 q 434 719 399 719 q 515 811 470 719 q 524 838 524 830 l 518 841 l 505 841 q 469 781 494 781 l 453 781 q 401 841 448 781 l 396 844 m 884 844 q 830 781 836 782 l 814 781 q 781 833 790 781 q 776 841 781 841 l 765 841 q 760 836 760 840 q 819 735 764 795 q 849 719 839 719 q 903 808 884 719 q 884 844 895 844 m 830 448 l 871 448 q 898 396 898 432 l 898 393 q 846 279 898 357 q 686 193 776 211 l 646 193 q 450 307 528 193 q 429 393 439 333 l 429 407 q 458 442 435 442 l 477 442 q 543 350 505 442 q 651 293 582 293 l 667 293 q 808 393 777 293 q 814 415 814 404 l 814 431 q 830 448 814 435 z "},"O":{"ha":1289,"x_min":52,"x_max":1237,"o":"m 589 1166 l 689 1166 q 1012 1044 837 1166 q 1177 838 1141 928 q 1237 613 1237 707 l 1237 556 q 1196 374 1237 475 q 1074 179 1185 305 q 751 5 922 40 q 711 0 726 0 l 600 0 q 317 92 478 0 q 73 407 144 199 q 52 532 52 484 l 52 632 q 155 928 52 768 q 304 1072 224 1020 q 564 1164 422 1147 q 589 1166 564 1166 m 165 597 q 247 339 165 471 q 518 133 334 201 q 640 114 585 114 l 659 114 q 974 252 817 114 q 1093 453 1061 348 q 1118 578 1118 529 q 974 922 1118 776 q 738 1042 861 1021 q 629 1055 712 1050 q 290 901 450 1055 q 165 597 165 755 m 326 892 l 353 892 q 562 765 408 880 q 594 741 569 765 l 594 727 q 502 665 594 703 q 361 600 443 631 l 342 600 q 309 637 309 608 l 309 654 q 363 692 323 678 q 475 741 443 709 q 355 811 422 784 q 309 852 322 834 l 309 876 q 326 892 309 880 m 917 887 l 925 887 q 974 854 949 887 l 974 841 q 833 749 954 820 l 830 743 q 979 627 979 652 l 979 621 q 955 583 979 600 l 930 583 q 765 686 915 583 q 711 741 711 726 l 711 762 q 852 857 739 794 q 917 887 912 887 m 846 491 l 879 491 q 909 456 904 491 l 909 442 q 822 331 909 396 q 789 323 798 323 l 719 323 q 648 372 694 323 q 556 328 604 328 l 526 328 q 434 358 484 328 q 380 434 380 397 l 380 461 q 391 480 380 476 l 420 480 q 467 426 447 480 q 532 396 507 396 q 610 467 576 396 q 637 486 625 486 l 656 486 q 713 404 682 486 q 746 391 728 391 q 833 480 804 391 l 846 491 z "},"P":{"ha":1289,"x_min":52,"x_max":1237,"o":"m 589 1166 l 689 1166 q 1012 1044 837 1166 q 1177 838 1141 928 q 1237 613 1237 707 l 1237 556 q 1196 374 1237 475 q 1074 179 1185 305 q 751 5 922 40 q 711 0 726 0 l 600 0 q 317 92 478 0 q 73 407 144 199 q 52 532 52 484 l 52 632 q 155 928 52 768 q 304 1072 224 1020 q 564 1164 422 1147 q 589 1166 564 1166 m 165 597 q 247 339 165 471 q 518 133 334 201 q 640 114 585 114 l 659 114 q 974 252 817 114 q 1093 453 1061 348 q 1118 578 1118 529 q 974 922 1118 776 q 738 1042 861 1021 q 629 1055 712 1050 q 290 901 450 1055 q 165 597 165 755 m 480 808 q 581 779 581 808 q 589 762 589 776 l 589 738 q 553 724 585 724 l 521 724 l 507 727 q 450 675 507 687 l 429 675 q 382 727 406 675 q 342 741 342 738 q 315 776 315 756 l 315 787 q 464 808 315 808 l 480 808 m 713 806 l 724 806 q 822 800 745 806 q 895 803 841 800 q 974 765 974 800 l 974 754 q 922 724 974 724 l 920 724 q 863 670 920 681 l 841 670 q 770 722 813 670 q 700 762 700 739 l 700 792 q 713 806 700 795 m 431 543 l 475 543 q 488 521 488 536 l 488 518 q 461 467 488 467 q 415 434 444 467 l 418 434 q 442 445 421 445 l 467 445 l 502 415 q 776 350 563 399 q 846 304 846 331 l 846 285 q 830 252 846 263 l 822 252 q 667 298 806 252 q 494 331 593 315 q 401 404 401 357 l 399 404 l 399 393 q 401 372 401 374 q 366 326 401 326 l 361 326 q 320 361 320 331 l 320 391 q 382 524 320 460 q 431 543 410 542 z "},"Q":{"ha":1289,"x_min":52,"x_max":1237,"o":"m 589 1166 l 689 1166 q 1012 1044 837 1166 q 1177 838 1141 928 q 1237 613 1237 707 l 1237 556 q 1196 374 1237 475 q 1074 179 1185 305 q 751 5 922 40 q 711 0 726 0 l 600 0 q 317 92 478 0 q 73 407 144 199 q 52 532 52 484 l 52 632 q 155 928 52 768 q 304 1072 224 1020 q 564 1164 422 1147 q 589 1166 564 1166 m 165 597 q 247 339 165 471 q 518 133 334 201 q 640 114 585 114 l 659 114 q 974 252 817 114 q 1093 453 1061 348 q 1118 578 1118 529 q 974 922 1118 776 q 738 1042 861 1021 q 629 1055 709 1050 q 290 901 450 1055 q 165 597 165 755 m 339 857 l 358 857 q 453 819 398 857 q 488 746 488 761 l 488 743 q 453 656 488 698 q 372 635 410 635 l 358 635 q 290 703 313 635 q 288 722 288 706 q 331 798 288 776 l 350 800 l 361 800 q 429 741 429 793 q 388 692 429 692 l 369 692 q 339 703 353 692 l 339 700 q 377 678 347 678 q 442 738 442 687 l 442 749 q 350 817 442 794 q 285 749 285 817 l 285 727 q 271 716 285 724 l 258 716 q 236 746 236 716 l 236 757 q 296 846 236 816 q 339 857 315 857 m 857 857 l 887 857 q 971 803 935 857 q 982 757 982 781 l 982 743 q 968 716 982 722 l 944 716 q 933 727 940 716 l 933 754 q 865 817 933 809 q 776 749 776 791 l 776 746 q 814 684 776 703 q 844 678 837 678 q 876 697 876 686 l 876 700 q 852 692 866 692 l 836 692 q 789 735 789 692 l 789 743 q 830 798 789 781 q 854 800 845 800 l 871 800 q 930 724 930 791 l 930 719 q 868 635 930 659 l 844 635 q 749 675 774 635 q 730 741 730 713 l 730 743 q 768 822 731 770 q 857 857 819 857 m 342 746 l 361 749 q 382 738 370 749 q 388 746 388 738 q 369 760 388 755 q 342 746 351 760 m 830 746 q 833 738 833 741 q 854 749 844 749 l 860 749 l 873 746 l 873 751 q 849 760 849 758 q 830 746 832 754 m 505 418 l 629 418 q 749 388 749 418 l 751 372 l 751 361 q 719 328 751 339 l 515 328 q 467 369 467 344 l 467 388 q 505 418 467 414 z "},"R":{"ha":1289,"x_min":52,"x_max":1237,"o":"m 589 1166 l 689 1166 q 1012 1044 837 1166 q 1177 838 1141 928 q 1237 613 1237 707 l 1237 556 q 1196 374 1237 475 q 1074 179 1185 305 q 751 5 922 40 q 711 0 726 0 l 600 0 q 317 92 478 0 q 73 407 144 199 q 52 532 52 484 l 52 632 q 155 928 52 768 q 304 1072 224 1020 q 564 1164 422 1147 q 589 1166 564 1166 m 165 597 q 247 339 165 471 q 518 133 334 201 q 640 114 585 114 l 659 114 q 974 252 817 114 q 1093 453 1061 348 q 1118 578 1118 529 q 974 922 1118 776 q 738 1042 861 1021 q 629 1055 709 1050 q 290 901 450 1055 q 165 597 165 755 m 404 844 l 431 844 q 559 705 507 844 q 572 640 572 668 l 572 618 q 545 583 569 583 l 524 583 q 491 651 491 583 q 439 765 491 703 l 437 765 q 377 627 387 765 q 369 610 377 610 l 326 610 q 309 659 312 610 l 309 667 q 372 833 309 795 q 404 844 390 844 m 787 838 l 836 838 q 971 651 932 838 q 974 627 974 641 l 974 621 q 955 589 965 589 l 920 589 q 868 727 900 589 q 825 765 847 765 l 822 765 q 779 700 779 754 l 779 608 q 770 600 779 604 l 730 600 q 700 684 711 600 l 700 689 q 773 836 700 815 q 787 838 778 838 m 618 491 l 662 491 q 833 396 755 491 q 871 269 871 342 l 871 233 q 838 193 865 193 l 808 193 q 787 212 793 201 q 798 263 787 226 q 741 377 798 317 q 632 418 693 418 l 632 420 q 488 260 513 420 q 456 209 485 209 l 420 209 q 407 222 417 209 l 407 233 q 450 396 407 300 q 618 491 524 491 z "},"S":{"ha":1289,"x_min":52,"x_max":1237,"o":"m 589 1166 l 689 1166 q 1012 1044 837 1166 q 1177 838 1141 928 q 1237 613 1237 707 l 1237 556 q 1196 374 1237 475 q 1074 179 1185 305 q 751 5 922 40 q 711 0 726 0 l 600 0 q 317 92 478 0 q 73 407 144 199 q 52 532 52 484 l 52 632 q 155 928 52 768 q 304 1072 224 1020 q 564 1164 422 1147 q 589 1166 564 1166 m 312 920 l 317 922 l 326 922 q 401 882 359 922 q 594 686 594 707 l 594 675 q 532 583 563 583 l 499 583 q 445 637 466 583 l 445 648 q 477 705 445 671 q 312 860 473 713 q 298 887 298 880 l 298 903 l 301 909 l 298 909 q 165 597 165 762 q 247 339 165 471 q 518 133 334 201 q 640 114 585 114 l 659 114 q 974 252 817 114 q 1093 453 1061 348 q 1118 578 1118 529 q 996 898 1118 761 q 977 857 996 873 q 814 697 975 852 q 838 646 838 671 l 838 635 q 798 583 838 599 l 770 583 q 700 686 710 583 l 700 700 q 827 825 719 732 q 920 917 861 873 q 941 925 933 925 l 968 925 q 841 1012 920 974 q 629 1055 718 1055 q 315 925 469 1055 l 312 920 m 873 540 q 985 434 930 540 q 996 388 996 407 l 996 380 q 963 339 989 339 l 939 339 q 914 396 914 350 l 911 410 l 909 410 q 800 312 909 351 q 529 193 664 269 l 510 193 q 488 228 488 213 l 488 239 q 583 309 488 275 q 800 399 620 328 q 844 442 810 404 l 873 442 q 895 431 883 442 l 895 434 q 822 467 860 467 q 803 507 803 496 l 803 513 q 852 540 803 540 l 873 540 z "},"T":{"ha":1289,"x_min":52,"x_max":1237,"o":"m 589 1166 l 689 1166 q 1012 1044 837 1166 q 1177 838 1141 928 q 1237 613 1237 707 l 1237 556 q 1196 374 1237 475 q 1074 179 1185 305 q 751 5 922 40 q 711 0 726 0 l 600 0 q 317 92 478 0 q 73 407 144 199 q 52 532 52 484 l 52 632 q 155 928 52 768 q 304 1072 224 1020 q 564 1164 422 1147 q 589 1166 564 1166 m 165 597 q 247 339 165 471 q 518 133 334 201 q 640 114 585 114 l 659 114 q 974 252 817 114 q 1093 453 1061 348 q 1118 578 1118 529 q 974 922 1118 776 q 738 1042 861 1021 q 629 1055 709 1050 q 290 901 450 1055 q 165 597 165 755 m 369 806 q 570 792 570 806 q 578 773 578 782 l 578 760 q 567 727 578 757 l 567 724 q 572 673 567 719 l 572 667 q 537 627 561 627 l 513 627 q 491 662 491 640 l 491 711 q 415 730 491 720 l 382 730 q 339 724 378 730 l 331 724 q 309 746 328 724 l 309 787 q 369 806 309 801 m 713 806 l 743 806 q 773 795 758 795 l 860 795 q 911 806 899 806 l 933 806 q 974 773 974 800 l 974 757 l 955 708 q 958 684 958 693 l 958 673 q 941 643 958 652 l 914 643 q 876 692 884 643 l 876 713 q 711 724 804 721 q 689 762 689 741 l 689 776 q 713 806 689 806 m 567 469 q 719 467 657 467 q 773 445 773 463 l 773 431 q 713 393 773 393 q 537 388 708 391 q 515 415 515 398 l 515 429 q 567 469 515 456 z "},"U":{"ha":1289,"x_min":52,"x_max":1237,"o":"m 589 1166 l 689 1166 q 1012 1044 837 1166 q 1177 838 1141 928 q 1237 613 1237 707 l 1237 556 q 1196 374 1237 475 q 1074 179 1185 305 q 751 5 922 40 q 711 0 726 0 l 600 0 q 317 92 478 0 q 73 407 144 199 q 52 532 52 484 l 52 632 q 155 928 52 768 q 304 1072 224 1020 q 564 1164 422 1147 q 589 1166 564 1166 m 165 597 q 247 339 165 471 q 518 133 334 201 q 640 114 585 114 l 659 114 q 974 252 817 114 q 1093 453 1061 348 q 1118 578 1118 529 q 974 922 1118 776 q 738 1042 861 1021 q 629 1055 709 1050 q 290 901 450 1055 q 165 597 165 755 m 518 806 q 551 773 551 796 l 551 760 q 515 713 551 720 l 491 713 q 469 722 483 713 l 469 578 q 453 570 467 570 l 434 570 q 412 578 414 570 l 412 727 l 396 724 l 399 719 l 399 703 q 377 453 393 453 q 326 464 326 453 l 326 727 q 236 757 236 727 q 233 765 233 757 l 233 779 q 301 803 245 803 q 518 806 401 803 m 760 806 q 947 803 880 803 l 949 803 q 1042 784 1029 803 l 1044 770 l 1044 768 q 974 730 1044 730 q 952 727 972 730 l 952 467 q 901 453 952 454 q 879 697 884 453 l 879 719 l 882 724 l 865 727 l 865 581 q 857 572 865 576 l 817 572 q 808 581 812 572 l 808 722 l 806 722 q 784 713 792 713 l 762 713 q 727 760 735 713 l 727 770 q 760 806 727 794 m 654 529 l 681 529 q 844 445 774 529 q 909 307 909 333 l 909 298 q 873 252 901 252 l 849 252 q 817 285 827 252 l 817 317 q 762 418 817 363 q 654 461 707 461 l 643 461 q 488 369 547 461 q 458 258 477 349 l 450 252 l 404 252 q 385 290 393 252 l 385 304 q 439 431 393 370 q 654 529 514 529 z "},"V":{"ha":1289,"x_min":52,"x_max":1237,"o":"m 589 1166 l 689 1166 q 1012 1044 837 1166 q 1177 838 1141 928 q 1237 613 1237 707 l 1237 556 q 1196 374 1237 475 q 1074 179 1185 305 q 751 5 922 40 q 711 0 726 0 l 600 0 q 317 92 478 0 q 73 407 144 199 q 52 532 52 484 l 52 632 q 144 911 52 760 q 317 1080 219 1021 q 507 1153 422 1141 q 589 1166 553 1166 m 165 597 q 247 339 165 471 q 518 133 334 201 q 640 114 585 114 l 659 114 q 974 252 817 114 q 1093 453 1061 348 q 1118 578 1118 529 q 974 922 1118 776 q 738 1042 861 1021 q 629 1055 709 1050 q 290 901 450 1055 q 165 597 165 755 m 524 887 l 553 887 q 572 846 572 878 l 572 836 q 502 662 572 751 q 431 627 467 627 l 404 627 q 317 724 347 627 q 309 806 309 760 l 309 811 q 326 860 312 860 l 369 860 q 382 789 382 856 q 442 705 398 705 q 494 852 494 768 q 524 887 498 887 m 920 882 l 955 882 q 974 849 965 882 l 974 838 q 928 689 974 797 q 836 632 882 632 l 787 632 q 703 732 726 632 q 700 776 700 760 l 700 784 q 730 871 711 871 l 770 871 q 779 863 774 871 l 779 773 q 814 705 779 725 l 822 705 q 892 841 871 705 q 920 882 910 879 m 608 572 l 640 572 q 911 439 809 572 l 941 393 q 958 410 941 397 l 1001 410 q 1012 377 1007 410 l 1012 374 q 939 274 1012 337 q 890 263 911 263 l 844 263 q 792 293 815 263 q 830 342 792 342 q 871 336 864 336 l 873 342 q 779 458 856 397 q 667 486 751 475 q 613 499 630 499 q 458 423 550 499 q 404 326 404 354 l 404 323 l 407 323 l 464 331 q 496 279 485 331 q 412 258 496 269 l 388 258 q 296 323 340 258 q 282 377 282 346 l 282 385 q 304 415 282 399 l 328 415 q 358 401 345 415 q 442 507 375 443 q 608 572 524 572 z "},"W":{"ha":1289,"x_min":52,"x_max":1237,"o":"m 583 1166 l 689 1166 q 974 1072 815 1166 q 1213 751 1147 951 q 1237 608 1237 669 l 1237 551 q 1196 372 1237 479 q 979 103 1146 218 q 711 0 809 0 l 600 0 q 301 103 469 0 q 73 407 142 208 q 52 540 52 481 l 52 624 q 182 963 52 794 q 323 1082 275 1061 q 496 1153 389 1126 q 583 1166 569 1166 m 165 594 q 312 258 165 421 q 640 114 470 114 l 659 114 q 966 244 811 114 q 1099 469 1067 351 q 1118 581 1118 533 q 971 925 1118 778 q 629 1055 821 1055 q 296 906 454 1055 q 165 594 165 761 m 393 898 l 437 898 q 556 814 511 898 q 567 754 567 791 q 475 624 567 658 q 431 616 457 616 l 396 616 q 282 711 319 616 q 277 757 277 732 l 277 765 q 377 895 277 855 l 393 898 m 871 898 l 914 898 q 1034 814 989 898 q 1044 754 1044 791 q 952 624 1044 658 q 909 616 935 616 l 873 616 q 760 711 796 616 q 754 757 754 732 l 754 765 q 854 895 754 855 l 871 898 m 624 513 l 667 513 q 846 407 766 513 q 876 296 876 353 l 876 255 q 844 214 870 214 l 814 214 q 792 233 798 223 l 792 239 q 803 285 792 244 q 727 415 803 351 q 637 442 672 441 q 494 282 518 442 q 461 231 490 231 l 426 231 q 412 244 422 231 l 412 255 q 453 412 412 317 q 624 513 525 513 z "},"X":{"ha":1289,"x_min":52,"x_max":1237,"o":"m 589 1166 l 689 1166 q 1012 1044 837 1166 q 1177 838 1141 928 q 1237 613 1237 707 l 1237 556 q 1196 374 1237 475 q 1074 179 1185 305 q 751 5 922 40 q 711 0 726 0 l 600 0 q 317 92 478 0 q 73 407 144 199 q 52 532 52 484 l 52 632 q 155 928 52 768 q 304 1072 224 1020 q 564 1164 422 1147 q 589 1166 564 1166 m 165 597 q 247 339 165 471 q 518 133 334 201 q 640 114 585 114 l 659 114 q 974 252 817 114 q 1093 453 1061 348 q 1118 578 1118 529 q 974 922 1118 776 q 738 1042 861 1021 q 629 1055 709 1050 q 290 901 450 1055 q 165 597 165 755 m 741 806 q 941 803 921 803 q 990 770 990 799 l 990 768 q 947 730 990 737 l 800 730 q 760 719 767 719 l 724 719 q 705 746 705 731 l 705 762 q 741 806 714 806 m 355 800 q 507 798 446 798 q 562 776 562 793 l 562 762 q 502 724 562 724 q 326 719 496 722 q 304 746 304 729 l 304 760 q 355 800 304 787 m 567 469 q 719 467 657 467 q 773 445 773 463 l 773 431 q 713 393 773 393 q 537 388 708 391 q 515 415 515 398 l 515 429 q 567 469 515 456 z "},"Y":{"ha":1289,"x_min":52,"x_max":1237,"o":"m 589 1166 l 689 1166 q 1012 1044 837 1166 q 1177 838 1141 928 q 1237 613 1237 707 l 1237 556 q 1196 374 1237 475 q 1074 179 1185 305 q 751 5 922 40 q 711 0 726 0 l 600 0 q 317 92 478 0 q 73 407 144 199 q 52 532 52 484 l 52 632 q 155 928 52 768 q 304 1072 225 1021 q 564 1164 422 1147 q 589 1166 564 1166 m 165 597 q 247 339 165 471 q 518 133 334 201 q 640 114 585 114 l 659 114 q 974 252 817 114 q 1093 453 1061 348 q 1118 578 1118 529 q 974 922 1118 776 q 738 1042 861 1021 q 629 1055 709 1050 q 290 901 450 1055 q 165 597 165 755 m 418 925 q 510 863 481 925 q 518 817 518 838 l 518 803 q 415 703 518 719 l 385 703 q 293 768 328 703 q 282 811 282 787 l 282 822 q 369 925 282 898 l 418 925 m 879 892 q 990 792 990 876 l 990 787 q 898 675 990 707 l 860 675 q 765 738 800 675 q 754 784 754 754 l 754 795 q 825 892 754 869 l 879 892 m 366 811 q 391 787 370 787 l 393 787 q 434 817 425 787 q 404 846 425 846 l 401 846 q 366 811 366 843 m 838 784 q 863 754 843 754 q 901 787 888 754 q 871 819 892 819 l 868 819 q 838 784 842 819 m 513 741 l 529 741 q 562 722 551 741 l 562 705 q 458 610 562 670 q 401 600 427 600 l 380 600 q 244 678 318 600 l 244 692 q 258 730 250 730 l 288 730 q 396 673 370 673 q 502 738 426 673 q 513 741 507 741 m 987 708 l 1015 708 q 1034 678 1034 701 l 1034 667 q 1012 627 1034 659 q 884 556 964 556 l 863 556 q 727 610 798 556 q 711 648 711 632 l 711 665 q 738 692 716 692 l 760 692 q 822 648 770 692 q 871 629 853 629 l 879 629 q 963 697 922 629 q 987 708 977 708 m 618 491 l 662 491 q 833 396 755 491 q 871 269 871 342 l 871 233 q 838 193 865 193 l 808 193 q 787 212 793 201 q 798 263 787 226 q 741 377 798 317 q 632 418 693 418 l 632 420 q 488 260 513 420 q 456 209 485 209 l 420 209 q 407 222 417 209 l 407 233 q 450 396 407 300 q 618 491 525 491 z "},"Z":{"ha":1289,"x_min":52,"x_max":1237,"o":"m 589 1166 l 689 1166 q 1012 1044 837 1166 q 1177 838 1141 928 q 1237 613 1237 707 l 1237 556 q 1196 374 1237 475 q 1074 179 1185 305 q 751 5 922 40 q 711 0 726 0 l 600 0 q 317 92 478 0 q 73 407 144 199 q 52 532 52 484 l 52 632 q 144 911 52 760 q 317 1080 219 1021 q 507 1153 422 1141 q 589 1166 553 1166 m 165 597 q 247 339 165 471 q 518 133 334 201 q 640 114 585 114 l 659 114 q 974 252 817 114 q 1093 453 1061 348 q 1118 578 1118 529 q 974 922 1118 776 q 738 1042 861 1021 q 629 1055 709 1050 q 290 901 450 1055 q 165 597 165 755 m 732 817 l 749 817 q 827 760 763 817 q 836 757 833 757 q 898 811 881 800 l 928 811 q 958 781 950 811 l 958 773 q 903 705 958 757 q 968 635 968 650 l 968 624 q 947 594 968 610 l 925 594 q 841 654 913 594 q 754 583 759 583 l 735 583 q 700 627 711 583 l 700 637 q 770 703 700 657 l 770 705 q 711 779 711 758 l 711 795 q 732 817 711 817 m 336 811 l 358 811 q 445 746 372 811 l 518 806 l 545 806 q 572 779 572 800 l 572 768 q 510 692 572 748 l 556 646 l 556 632 l 545 605 q 529 600 536 600 l 502 600 q 445 643 451 643 q 372 583 386 583 l 358 583 q 326 610 342 583 l 326 629 q 388 700 326 648 q 323 762 388 703 l 320 776 l 320 795 q 336 811 320 799 m 461 415 l 486 415 q 819 388 547 407 q 914 328 914 380 l 914 320 q 879 290 914 295 l 857 290 q 586 317 687 317 q 442 345 442 317 q 429 369 434 345 l 429 382 q 461 415 429 405 z "},"[":{"ha":514,"x_min":0,"x_max":0,"o":""},"\\":{"ha":386,"x_min":0,"x_max":0,"o":""},"]":{"ha":514,"x_min":0,"x_max":0,"o":""},"^":{"ha":688,"x_min":0,"x_max":0,"o":""},"_":{"ha":694,"x_min":0,"x_max":0,"o":""},"`":{"ha":694,"x_min":0,"x_max":0,"o":""},"a":{"ha":1289,"x_min":0,"x_max":1185,"o":"m 532 1166 l 637 1166 q 922 1072 764 1166 q 1161 751 1096 951 q 1185 608 1185 669 l 1185 551 q 1145 372 1185 479 q 928 103 1095 218 q 659 0 758 0 l 548 0 q 250 103 417 0 q 22 407 90 208 q 0 540 0 481 l 0 624 q 130 963 0 794 q 271 1082 223 1061 q 445 1153 337 1126 q 532 1166 517 1166 m 114 594 q 260 258 114 421 q 589 114 418 114 l 608 114 q 914 244 760 114 q 1047 469 1016 351 q 1066 581 1066 533 q 920 925 1066 778 q 578 1055 770 1055 q 244 906 402 1055 q 114 594 114 761 m 342 898 l 385 898 q 505 814 460 898 q 515 754 515 791 q 423 624 515 658 q 380 616 406 616 l 345 616 q 231 711 267 616 q 225 757 225 732 l 225 765 q 326 895 225 855 l 342 898 m 819 898 l 863 898 q 982 814 937 898 q 993 754 993 791 q 901 624 993 658 q 857 616 883 616 l 822 616 q 708 711 745 616 q 703 757 703 732 l 703 765 q 803 895 703 855 l 819 898 m 762 513 l 792 513 q 825 472 819 513 l 825 431 q 697 236 825 301 q 608 214 656 214 l 572 214 q 399 320 471 214 q 361 472 362 407 l 361 483 q 374 496 361 486 l 410 496 q 445 418 445 496 q 575 288 481 288 l 591 288 q 741 396 691 288 q 751 445 751 426 q 741 488 741 480 l 741 494 q 762 513 747 504 z "},"b":{"ha":1289,"x_min":0,"x_max":1185,"o":"m 537 1166 l 637 1166 q 960 1044 785 1166 q 1126 838 1090 928 q 1185 613 1185 707 l 1185 556 q 1145 374 1185 475 q 1023 179 1133 305 q 700 5 870 40 q 659 0 674 0 l 548 0 q 266 92 427 0 q 22 407 93 199 q 0 532 0 484 l 0 632 q 92 911 0 760 q 266 1080 168 1021 q 456 1153 370 1141 q 537 1166 501 1166 m 114 597 q 195 339 114 471 q 467 133 282 201 q 589 114 533 114 l 608 114 q 922 252 766 114 q 1042 453 1009 348 q 1066 578 1066 529 q 922 922 1066 776 q 686 1042 810 1021 q 578 1055 658 1050 q 239 901 398 1055 q 114 597 114 755 m 472 844 l 502 844 q 521 808 521 832 l 521 787 q 437 605 521 699 q 385 583 403 583 l 353 583 q 269 670 298 583 q 258 760 258 707 l 258 768 q 274 817 260 817 l 317 817 q 334 730 327 817 q 391 662 351 662 q 442 817 442 724 q 472 844 452 844 m 868 838 l 903 838 q 922 800 915 838 q 865 632 922 735 q 784 589 823 589 l 735 589 q 654 675 679 589 q 648 738 648 705 l 648 743 q 678 827 659 827 l 719 827 q 727 819 723 827 l 727 751 q 724 749 727 749 l 727 743 l 727 732 q 762 662 727 681 l 770 662 q 841 798 819 662 q 868 838 859 836 m 372 513 q 456 491 456 502 q 423 439 444 439 l 420 439 q 363 445 396 445 q 453 317 363 399 q 572 271 530 271 l 575 271 q 727 307 680 293 q 833 423 795 349 l 833 429 q 827 434 833 434 l 789 429 q 751 472 755 429 l 751 477 q 803 507 774 507 l 846 507 q 936 458 905 507 q 971 396 971 424 l 971 393 q 960 361 966 361 l 917 361 l 898 377 q 722 220 844 264 q 605 198 659 198 l 567 198 q 315 369 422 198 q 288 355 309 355 l 263 355 q 241 385 241 371 l 241 393 q 342 513 241 479 l 372 513 z "},"c":{"ha":1289,"x_min":0,"x_max":1185,"o":"m 537 1166 l 637 1166 q 960 1044 785 1166 q 1126 838 1090 928 q 1185 613 1185 707 l 1185 556 q 1145 374 1185 475 q 1023 179 1133 305 q 700 5 870 40 q 659 0 674 0 l 548 0 q 266 92 427 0 q 22 407 93 199 q 0 532 0 484 l 0 632 q 103 928 0 768 q 252 1072 173 1020 q 513 1164 370 1147 q 537 1166 513 1166 m 114 597 q 195 339 114 471 q 467 133 282 201 q 589 114 533 114 l 608 114 q 922 252 766 114 q 1042 453 1009 348 q 1066 578 1066 529 q 922 922 1066 776 q 686 1042 810 1021 q 578 1055 658 1050 q 239 901 398 1055 q 114 597 114 755 m 377 936 l 399 936 q 537 871 537 897 l 537 849 q 510 822 532 822 l 486 822 q 374 852 471 822 q 288 779 338 852 q 266 768 276 768 l 247 768 q 220 792 220 772 l 220 795 q 331 925 220 852 q 377 936 358 936 m 773 925 l 795 925 q 939 871 896 907 q 955 841 955 853 l 955 827 q 922 795 948 795 l 901 795 q 819 838 895 795 q 781 852 795 852 l 779 852 q 708 795 758 852 l 689 789 l 656 789 q 643 811 643 796 l 643 822 q 749 920 643 875 q 773 925 766 925 m 372 762 l 407 762 q 510 675 487 762 l 510 651 q 426 532 510 566 q 412 529 421 529 l 377 529 q 260 616 287 529 q 258 635 258 619 l 258 651 q 345 760 258 730 q 372 762 359 762 m 762 757 q 887 697 831 757 q 895 665 895 673 l 895 656 q 844 545 895 576 q 776 524 791 524 l 754 524 q 662 575 694 524 q 654 616 654 600 l 654 646 q 719 757 654 725 l 762 757 m 342 648 q 401 608 342 614 l 407 608 q 429 654 419 608 l 429 659 q 369 684 408 684 q 342 648 342 684 m 741 678 q 732 635 732 650 q 754 613 736 613 l 789 613 q 811 635 811 613 q 741 678 811 660 m 757 491 l 787 491 q 819 442 817 491 l 819 415 q 692 214 819 278 q 602 193 650 193 l 567 193 q 391 301 465 193 q 355 450 355 397 l 355 461 q 369 475 355 465 l 404 475 q 439 396 439 473 q 570 266 476 266 l 586 266 q 694 312 644 266 q 746 423 746 370 q 735 472 735 455 q 757 491 741 482 z "},"d":{"ha":1289,"x_min":0,"x_max":1185,"o":"m 537 1166 l 637 1166 q 960 1044 785 1166 q 1126 838 1090 928 q 1185 613 1185 707 l 1185 556 q 1145 374 1185 475 q 1023 179 1133 305 q 700 5 870 40 q 659 0 674 0 l 548 0 q 266 92 427 0 q 22 407 93 199 q 0 532 0 484 l 0 632 q 92 911 0 760 q 266 1080 168 1021 q 456 1153 370 1141 q 537 1166 501 1166 m 114 597 q 195 339 114 471 q 467 133 282 201 q 589 114 533 114 l 608 114 q 922 252 766 114 q 1042 453 1009 348 q 1066 578 1066 529 q 922 922 1066 776 q 686 1042 810 1021 q 578 1055 658 1050 q 239 901 398 1055 q 114 597 114 755 m 339 806 q 407 746 382 806 l 407 722 q 339 670 407 687 l 320 670 q 258 724 290 670 l 258 746 q 304 806 258 771 l 339 806 m 730 806 q 798 746 773 806 l 798 722 q 730 670 798 687 l 711 670 q 648 724 681 670 l 648 746 q 694 806 648 771 l 730 806 m 705 637 l 732 637 q 781 572 773 637 q 784 551 784 553 q 776 475 784 549 q 863 361 776 469 q 884 296 884 325 l 884 285 q 803 203 884 235 q 757 193 778 193 l 732 193 q 610 328 654 193 l 608 328 q 559 323 581 323 l 491 323 q 407 355 449 327 q 320 475 327 429 q 307 532 315 487 l 307 586 q 328 600 313 600 l 355 600 q 399 480 370 600 q 513 396 433 396 l 521 396 q 670 456 606 396 q 708 548 708 499 q 692 589 700 578 l 692 591 q 705 637 694 637 z "},"e":{"ha":1289,"x_min":0,"x_max":1185,"o":"m 532 1166 l 637 1166 q 960 1044 785 1166 q 1126 838 1090 928 q 1185 613 1185 707 l 1185 556 q 1145 374 1185 475 q 1023 179 1133 305 q 700 5 870 40 q 659 0 674 0 l 548 0 q 250 103 417 0 q 22 407 90 208 q 0 540 0 481 l 0 624 q 130 963 0 794 q 271 1082 223 1061 q 445 1153 337 1126 q 532 1166 517 1166 m 114 594 q 260 258 114 421 q 589 114 418 114 l 608 114 q 922 252 766 114 q 1042 453 1009 348 q 1066 578 1066 529 q 922 922 1066 776 q 686 1042 810 1021 q 578 1055 661 1050 q 244 906 402 1055 q 114 594 114 761 m 285 925 l 309 925 q 388 868 321 925 q 594 730 479 801 q 865 914 596 734 l 892 914 q 928 865 928 886 l 928 854 q 825 781 923 847 q 665 667 819 774 l 665 665 q 841 510 823 532 l 841 472 q 814 458 835 458 l 792 458 q 591 621 771 458 q 412 496 491 569 q 339 448 353 448 l 315 448 q 285 502 285 463 l 285 507 q 467 646 285 534 l 518 681 q 269 865 353 787 q 263 882 263 874 l 263 890 q 285 925 263 911 m 808 404 l 808 369 q 673 165 808 233 q 608 155 639 155 l 575 155 q 377 298 441 155 q 366 339 366 328 l 366 377 q 808 404 366 388 z "},"f":{"ha":1289,"x_min":0,"x_max":1185,"o":"m 537 1166 l 637 1166 q 960 1044 785 1166 q 1126 838 1090 928 q 1185 613 1185 707 l 1185 556 q 1145 374 1185 475 q 1023 179 1133 305 q 700 5 870 40 q 659 0 674 0 l 548 0 q 266 92 427 0 q 22 407 93 199 q 0 532 0 484 l 0 632 q 92 911 0 760 q 266 1080 168 1021 q 456 1153 370 1141 q 537 1166 501 1166 m 114 597 q 195 339 114 471 q 467 133 282 201 q 589 114 533 114 l 608 114 q 922 252 766 114 q 1042 453 1009 348 q 1066 578 1066 529 q 922 922 1066 776 q 686 1042 810 1021 q 578 1055 658 1050 q 239 901 398 1055 q 114 597 114 755 m 401 806 l 434 806 q 515 730 490 806 l 515 703 q 426 616 515 629 l 393 616 q 320 681 345 616 q 317 708 317 695 l 317 719 q 380 803 317 777 q 401 806 391 806 m 825 806 l 857 806 q 939 730 913 806 l 939 703 q 849 616 939 629 l 817 616 q 743 681 768 616 q 741 708 741 695 l 741 719 q 803 803 741 777 q 825 806 814 806 m 426 453 l 811 423 l 819 412 l 819 385 q 741 241 819 319 q 616 193 677 193 l 572 193 q 437 258 500 193 q 377 407 377 323 l 377 439 q 426 453 377 453 z "},"g":{"ha":1289,"x_min":0,"x_max":1185,"o":"m 537 1166 l 637 1166 q 960 1044 785 1166 q 1126 838 1090 928 q 1185 613 1185 707 l 1185 556 q 1145 374 1185 475 q 1023 179 1133 305 q 700 5 870 40 q 659 0 674 0 l 548 0 q 266 92 427 0 q 22 407 93 199 q 0 532 0 484 l 0 632 q 92 911 0 760 q 266 1080 168 1021 q 456 1153 370 1141 q 537 1166 501 1166 m 114 597 q 195 339 114 471 q 467 133 282 201 q 589 114 533 114 l 608 114 q 922 252 766 114 q 1042 453 1009 348 q 1066 578 1066 529 q 922 922 1066 776 q 686 1042 810 1021 q 578 1055 658 1050 q 239 901 398 1055 q 114 597 114 755 m 377 936 l 399 936 q 537 871 537 897 l 537 849 q 510 822 532 822 l 486 822 q 374 852 471 822 q 288 779 338 852 q 266 768 276 768 l 247 768 q 220 792 220 772 l 220 795 q 331 925 220 852 q 377 936 358 936 m 773 925 l 795 925 q 939 871 896 907 q 955 841 955 853 l 955 827 q 922 795 948 795 l 901 795 q 819 838 895 795 q 781 852 795 852 l 779 852 q 708 795 758 852 l 689 789 l 656 789 q 643 811 643 796 l 643 822 q 749 920 643 875 q 773 925 766 925 m 372 762 l 407 762 q 510 675 487 762 l 510 651 q 426 532 510 566 q 412 529 421 529 l 377 529 q 260 616 287 529 q 258 635 258 619 l 258 651 q 345 760 258 730 q 372 762 359 762 m 762 757 q 887 697 831 757 q 895 665 895 673 l 895 656 q 844 545 895 576 q 776 524 791 524 l 754 524 q 662 575 694 524 q 654 616 654 600 l 654 646 q 719 757 654 725 l 762 757 m 342 648 q 401 608 342 614 l 407 608 q 429 654 419 608 l 429 659 q 369 684 408 684 q 342 648 342 684 m 741 678 q 732 635 732 650 q 754 613 736 613 l 789 613 q 811 635 811 613 q 741 678 811 660 m 426 453 l 811 423 l 819 412 l 819 385 q 741 241 819 319 q 616 193 677 193 l 572 193 q 437 258 500 193 q 377 407 377 323 l 377 439 q 426 453 377 453 z "},"h":{"ha":1289,"x_min":0,"x_max":1185,"o":"m 537 1166 l 637 1166 q 960 1044 785 1166 q 1126 838 1090 928 q 1185 613 1185 707 l 1185 556 q 1145 374 1185 475 q 1023 179 1133 305 q 700 5 870 40 q 659 0 674 0 l 548 0 q 266 92 427 0 q 22 407 93 199 q 0 532 0 484 l 0 632 q 92 911 0 760 q 266 1080 168 1021 q 456 1153 370 1141 q 537 1166 501 1166 m 114 597 q 195 339 114 471 q 467 133 282 201 q 589 114 533 114 l 608 114 q 922 252 766 114 q 1042 453 1009 348 q 1066 578 1066 529 q 922 922 1066 776 q 686 1042 810 1021 q 578 1055 658 1050 q 239 901 398 1055 q 114 597 114 755 m 353 844 l 380 844 q 507 705 456 844 q 521 640 521 668 l 521 618 q 494 583 517 583 l 472 583 q 439 651 439 583 q 388 765 439 703 l 385 765 q 326 627 336 765 q 317 610 326 610 l 274 610 q 258 659 260 610 l 258 667 q 320 833 258 795 q 353 844 338 844 m 735 838 l 784 838 q 920 651 880 838 q 922 627 922 641 l 922 621 q 903 589 913 589 l 868 589 q 817 727 848 589 q 773 765 795 765 l 770 765 q 727 700 727 754 l 727 608 q 719 600 727 604 l 678 600 q 648 684 659 600 l 648 689 q 722 836 648 815 q 735 838 726 838 m 372 513 q 456 491 456 502 q 423 439 444 439 l 420 439 q 363 445 396 445 q 453 317 363 399 q 572 271 530 271 l 575 271 q 727 307 680 293 q 833 423 795 349 l 833 429 q 827 434 833 434 l 789 429 q 751 472 755 429 l 751 477 q 803 507 774 507 l 846 507 q 936 458 905 507 q 971 396 971 424 l 971 393 q 960 361 966 361 l 917 361 l 898 377 q 722 220 844 264 q 605 198 659 198 l 567 198 q 315 369 422 198 q 288 355 309 355 l 263 355 q 241 385 241 371 l 241 393 q 342 513 241 479 l 372 513 z "},"i":{"ha":1289,"x_min":0,"x_max":1185,"o":"m 537 1166 l 637 1166 q 960 1044 785 1166 q 1126 838 1090 928 q 1185 613 1185 707 l 1185 556 q 1145 374 1185 475 q 1023 179 1133 305 q 700 5 870 40 q 659 0 674 0 l 548 0 q 266 92 427 0 q 22 407 93 199 q 0 532 0 484 l 0 632 q 103 928 0 768 q 252 1072 174 1021 q 513 1164 370 1147 q 537 1166 513 1166 m 114 597 q 195 339 114 471 q 467 133 282 201 q 589 114 533 114 l 608 114 q 922 252 766 114 q 1042 453 1009 348 q 1066 578 1066 529 q 922 922 1066 776 q 686 1042 810 1021 q 578 1055 658 1050 q 239 901 398 1055 q 114 597 114 755 m 749 914 l 795 914 q 890 776 808 906 q 928 705 928 719 l 928 694 q 892 665 928 669 l 879 665 q 787 784 848 665 l 787 787 l 781 787 q 705 665 732 665 l 692 665 q 654 711 664 665 l 654 722 q 735 892 654 728 q 749 914 735 907 m 366 909 l 391 909 q 521 708 434 909 q 526 703 526 707 l 526 694 q 491 659 526 672 l 477 659 q 399 781 446 659 l 396 781 q 317 659 361 707 l 290 659 q 258 703 264 659 l 258 705 q 345 873 258 724 q 366 909 358 908 m 255 529 l 285 529 q 347 483 302 529 l 396 448 q 591 374 507 374 q 719 404 710 404 q 871 524 760 424 l 914 524 q 928 499 922 524 l 928 486 q 879 418 928 464 q 692 290 831 335 q 627 279 664 279 l 589 279 q 279 420 433 279 q 225 499 225 486 q 255 529 225 522 z "},"j":{"ha":1289,"x_min":0,"x_max":1185,"o":"m 532 1166 l 637 1166 q 922 1072 764 1166 q 1161 751 1096 951 q 1185 608 1185 669 l 1185 551 q 1145 372 1185 479 q 928 103 1095 218 q 659 0 758 0 l 548 0 q 250 103 417 0 q 22 407 90 208 q 0 540 0 481 l 0 624 q 130 963 0 794 q 271 1082 223 1061 q 445 1153 337 1126 q 532 1166 517 1166 m 114 594 q 260 258 114 421 q 589 114 418 114 l 608 114 q 914 244 760 114 q 1047 469 1016 351 q 1066 581 1066 533 q 920 925 1066 778 q 578 1055 770 1055 q 244 906 402 1055 q 114 594 114 761 m 749 914 l 795 914 q 890 776 808 906 q 928 705 928 719 l 928 694 q 892 665 928 669 l 879 665 q 787 787 846 665 l 781 787 q 705 665 732 665 l 692 665 q 654 711 665 665 l 654 722 q 735 892 654 728 q 749 914 735 907 m 366 909 l 391 909 q 510 730 433 909 q 526 703 512 729 l 526 694 q 491 659 526 672 l 472 659 q 399 779 445 669 l 399 781 l 396 781 q 315 659 360 701 l 285 659 q 258 703 258 675 l 258 705 q 345 873 258 724 q 366 909 355 902 m 486 545 l 507 545 q 575 423 525 539 l 581 423 q 665 545 601 484 l 692 545 q 722 515 714 545 l 722 505 q 591 296 712 469 l 543 296 q 507 366 534 298 q 448 488 448 477 l 448 499 q 486 545 458 545 z "},"k":{"ha":1289,"x_min":0,"x_max":1185,"o":"m 537 1166 l 637 1166 q 960 1044 785 1166 q 1126 838 1090 928 q 1185 613 1185 707 l 1185 556 q 1145 374 1185 475 q 1023 179 1133 305 q 700 5 870 40 q 659 0 674 0 l 548 0 q 266 92 427 0 q 22 407 93 199 q 0 532 0 484 l 0 632 q 92 911 0 760 q 266 1080 168 1021 q 456 1153 370 1141 q 537 1166 501 1166 m 114 597 q 195 339 114 471 q 467 133 282 201 q 589 114 533 114 l 608 114 q 922 252 766 114 q 1042 453 1009 348 q 1066 578 1066 529 q 922 922 1066 776 q 686 1042 810 1021 q 578 1055 658 1050 q 239 901 398 1055 q 114 597 114 755 m 339 806 q 407 746 382 806 l 407 722 q 339 670 407 687 l 320 670 q 258 724 290 670 l 258 746 q 304 806 258 771 l 339 806 m 730 806 q 798 746 773 806 l 798 722 q 730 670 798 687 l 711 670 q 648 724 681 670 l 648 746 q 694 806 648 771 l 730 806 m 873 518 q 901 488 901 507 l 901 475 q 876 448 897 448 l 844 448 q 830 385 838 448 q 605 193 764 193 l 567 193 q 353 320 439 193 q 328 410 336 358 l 282 410 q 258 445 258 429 l 258 483 q 266 491 258 487 l 429 491 q 456 464 456 486 l 456 450 q 401 420 456 420 q 437 331 412 370 q 583 260 513 260 q 749 366 675 260 q 762 410 762 401 l 762 442 l 754 442 q 703 480 703 452 l 703 488 q 743 515 703 515 q 873 518 785 515 z "},"l":{"ha":1289,"x_min":0,"x_max":1185,"o":"m 537 1166 l 637 1166 q 960 1044 785 1166 q 1126 838 1090 928 q 1185 613 1185 707 l 1185 556 q 1145 374 1185 475 q 1023 179 1133 305 q 700 5 870 40 q 659 0 674 0 l 548 0 q 250 103 417 0 q 22 407 90 208 q 0 540 0 481 l 0 624 q 130 963 0 794 q 331 1115 237 1078 q 537 1166 454 1164 m 114 594 q 260 258 114 421 q 589 114 418 114 l 608 114 q 922 252 766 114 q 1042 453 1009 348 q 1066 578 1066 529 q 922 922 1066 776 q 686 1042 810 1021 q 578 1055 658 1050 q 244 906 402 1055 q 114 594 114 761 m 903 833 q 939 798 939 823 l 939 789 q 762 600 939 762 q 741 583 762 587 l 724 583 q 692 627 699 583 l 692 635 q 724 681 692 665 q 871 833 866 812 l 903 833 m 317 827 l 345 827 q 502 640 437 734 l 505 627 l 505 613 q 472 589 490 589 l 456 589 q 342 708 422 597 q 290 787 290 775 l 290 811 q 317 827 303 827 m 779 448 l 811 448 q 846 401 839 448 l 846 393 q 784 266 846 351 q 621 193 683 193 l 594 193 q 399 307 477 193 q 377 393 387 333 l 377 407 q 407 442 384 442 l 426 442 q 491 350 454 442 q 600 293 530 293 l 616 293 q 757 393 725 293 q 762 415 762 404 l 762 431 q 779 448 762 435 z "},"m":{"ha":1289,"x_min":0,"x_max":1185,"o":"m 532 1166 l 637 1166 q 922 1072 764 1166 q 1161 751 1096 951 q 1185 608 1185 669 l 1185 551 q 1145 372 1185 479 q 928 103 1095 218 q 659 0 758 0 l 548 0 q 250 103 417 0 q 22 407 90 208 q 0 540 0 481 l 0 624 q 130 963 0 794 q 271 1082 223 1061 q 445 1153 337 1126 q 532 1166 517 1166 m 114 594 q 260 258 114 421 q 589 114 418 114 l 608 114 q 914 244 760 114 q 1042 453 1008 342 q 1066 581 1066 524 q 920 925 1066 778 q 578 1055 770 1055 q 244 906 402 1055 q 114 594 114 761 m 369 920 l 407 920 q 429 879 429 905 l 429 852 q 488 841 429 846 q 499 827 499 829 l 499 803 q 475 781 499 781 l 450 781 q 401 762 401 779 q 513 673 513 736 l 513 665 q 464 589 513 608 q 453 581 464 585 q 458 548 458 562 l 458 526 q 434 513 458 518 l 401 513 q 382 570 395 513 q 350 605 372 587 l 350 632 q 361 656 350 653 l 382 656 q 412 643 390 656 q 445 673 445 653 q 393 694 434 689 q 334 749 334 694 l 334 765 q 369 830 334 775 q 358 879 358 858 l 358 890 q 369 920 358 901 m 727 909 l 749 909 q 776 838 776 909 l 784 833 l 795 833 q 852 798 852 833 l 852 776 q 830 762 845 762 q 776 768 817 762 q 751 751 755 761 l 751 749 l 757 741 l 762 743 l 798 743 q 846 675 846 731 l 846 656 q 803 591 846 641 l 803 589 q 806 562 803 576 q 789 529 806 538 l 751 529 q 727 581 746 530 q 692 624 692 621 q 703 675 695 675 l 719 675 q 751 654 732 675 q 781 673 768 654 q 689 716 689 692 q 684 743 684 716 l 684 757 q 719 814 684 775 q 708 887 708 857 l 708 890 q 727 909 708 909 m 779 448 l 819 448 q 846 396 846 432 l 846 393 q 795 279 846 357 q 635 193 724 211 l 594 193 q 399 307 477 193 q 377 393 387 333 l 377 407 q 407 442 384 442 l 426 442 q 491 350 454 442 q 600 293 530 293 l 616 293 q 757 393 725 293 q 762 415 762 404 l 762 431 q 779 448 762 435 z "},"n":{"ha":1289,"x_min":0,"x_max":1185,"o":"m 532 1166 l 637 1166 q 922 1072 764 1166 q 1161 751 1096 951 q 1185 608 1185 669 l 1185 551 q 1145 372 1185 479 q 928 103 1095 218 q 659 0 758 0 l 548 0 q 250 103 417 0 q 22 407 90 208 q 0 540 0 481 l 0 624 q 130 963 0 794 q 271 1082 223 1061 q 445 1153 337 1126 q 532 1166 517 1166 m 114 594 q 260 258 114 421 q 589 114 418 114 l 608 114 q 914 244 760 114 q 1042 453 1008 342 q 1066 581 1066 524 q 920 925 1066 778 q 578 1055 770 1055 q 244 906 402 1055 q 114 594 114 761 m 347 906 q 393 892 354 906 q 437 906 429 906 l 453 906 q 537 849 512 906 q 540 825 540 834 l 540 822 q 453 684 540 724 q 434 662 453 680 l 431 651 q 442 597 442 613 l 442 591 q 420 570 442 570 l 401 570 q 372 608 378 570 q 312 705 365 641 q 260 811 260 760 l 260 827 q 320 906 260 889 l 347 906 m 727 906 l 743 906 q 787 892 751 906 q 833 906 826 906 l 854 906 q 920 827 909 906 l 920 808 q 868 705 920 759 q 800 583 809 634 q 779 570 795 570 l 760 570 q 738 594 738 570 l 738 597 q 749 654 738 609 q 681 713 741 677 q 640 830 640 751 q 727 906 640 892 m 345 844 q 328 808 332 829 q 382 719 348 719 q 464 811 418 719 q 472 838 472 830 l 467 841 l 453 841 q 418 781 442 781 l 401 781 q 350 841 396 781 l 345 844 m 833 844 q 779 781 784 782 l 762 781 q 730 833 739 781 q 724 841 730 841 l 713 841 q 708 836 708 840 q 768 735 713 795 q 798 719 787 719 q 852 808 832 719 q 833 844 843 844 m 779 448 l 819 448 q 846 396 846 432 l 846 393 q 795 279 846 357 q 635 193 724 211 l 594 193 q 399 307 477 193 q 377 393 387 333 l 377 407 q 407 442 384 442 l 426 442 q 491 350 454 442 q 600 293 530 293 l 616 293 q 757 393 725 293 q 762 415 762 404 l 762 431 q 779 448 762 435 z "},"o":{"ha":1289,"x_min":0,"x_max":1185,"o":"m 537 1166 l 637 1166 q 960 1044 785 1166 q 1126 838 1090 928 q 1185 613 1185 707 l 1185 556 q 1145 374 1185 475 q 1023 179 1133 305 q 700 5 870 40 q 659 0 674 0 l 548 0 q 266 92 427 0 q 22 407 93 199 q 0 532 0 484 l 0 632 q 103 928 0 768 q 252 1072 173 1020 q 513 1164 370 1147 q 537 1166 513 1166 m 114 597 q 195 339 114 471 q 467 133 282 201 q 589 114 533 114 l 608 114 q 922 252 766 114 q 1042 453 1009 348 q 1066 578 1066 529 q 922 922 1066 776 q 686 1042 810 1021 q 578 1055 661 1050 q 239 901 398 1055 q 114 597 114 755 m 274 892 l 301 892 q 510 765 357 880 q 543 741 517 765 l 543 727 q 450 665 543 703 q 309 600 391 631 l 290 600 q 258 637 258 608 l 258 654 q 312 692 272 678 q 423 741 391 709 q 304 811 370 784 q 258 852 271 834 l 258 876 q 274 892 258 880 m 865 887 l 873 887 q 922 854 897 887 l 922 841 q 781 749 903 820 l 779 743 q 928 627 928 652 l 928 621 q 903 583 928 600 l 879 583 q 713 686 863 583 q 659 741 659 726 l 659 762 q 800 857 687 794 q 865 887 861 887 m 795 491 l 827 491 q 857 456 852 491 l 857 442 q 770 331 857 396 q 738 323 746 323 l 667 323 q 597 372 642 323 q 505 328 553 328 l 475 328 q 382 358 432 328 q 328 434 328 397 l 328 461 q 339 480 328 476 l 369 480 q 415 426 395 480 q 480 396 456 396 q 559 467 524 396 q 586 486 573 486 l 605 486 q 662 404 631 486 q 694 391 677 391 q 781 480 753 391 l 795 491 z "},"p":{"ha":1289,"x_min":0,"x_max":1185,"o":"m 537 1166 l 637 1166 q 960 1044 785 1166 q 1126 838 1090 928 q 1185 613 1185 707 l 1185 556 q 1145 374 1185 475 q 1023 179 1133 305 q 700 5 870 40 q 659 0 674 0 l 548 0 q 266 92 427 0 q 22 407 93 199 q 0 532 0 484 l 0 632 q 103 928 0 768 q 252 1072 173 1020 q 513 1164 370 1147 q 537 1166 513 1166 m 114 597 q 195 339 114 471 q 467 133 282 201 q 589 114 533 114 l 608 114 q 922 252 766 114 q 1042 453 1009 348 q 1066 578 1066 529 q 922 922 1066 776 q 686 1042 810 1021 q 578 1055 661 1050 q 239 901 398 1055 q 114 597 114 755 m 429 808 q 529 779 529 808 q 537 762 537 776 l 537 738 q 502 724 533 724 l 469 724 l 456 727 q 399 675 456 687 l 377 675 q 331 727 354 675 q 290 741 290 738 q 263 776 263 756 l 263 787 q 412 808 263 808 l 429 808 m 662 806 l 673 806 q 770 800 694 806 q 844 803 789 800 q 922 765 922 800 l 922 754 q 871 724 922 724 l 868 724 q 811 670 868 681 l 789 670 q 719 722 762 670 q 648 762 648 739 l 648 792 q 662 806 648 795 m 380 543 l 423 543 q 437 521 437 536 l 437 518 q 410 467 437 467 q 363 434 392 467 l 366 434 q 391 445 370 445 l 415 445 l 450 415 q 724 350 511 399 q 795 304 795 331 l 795 285 q 779 252 795 263 l 770 252 q 616 298 754 252 q 442 331 541 315 q 350 404 350 357 l 347 404 l 347 393 q 350 372 350 374 q 315 326 350 326 l 309 326 q 269 361 269 331 l 269 391 q 331 524 269 460 q 380 543 359 542 z "},"q":{"ha":1289,"x_min":0,"x_max":1185,"o":"m 537 1166 l 637 1166 q 960 1044 785 1166 q 1126 838 1090 928 q 1185 613 1185 707 l 1185 556 q 1145 374 1185 475 q 1023 179 1133 305 q 700 5 870 40 q 659 0 674 0 l 548 0 q 266 92 427 0 q 22 407 93 199 q 0 532 0 484 l 0 632 q 103 928 0 768 q 252 1072 173 1020 q 513 1164 370 1147 q 537 1166 513 1166 m 114 597 q 195 339 114 471 q 467 133 282 201 q 589 114 533 114 l 608 114 q 922 252 766 114 q 1042 453 1009 348 q 1066 578 1066 529 q 922 922 1066 776 q 686 1042 810 1021 q 578 1055 658 1050 q 239 901 398 1055 q 114 597 114 755 m 288 857 l 307 857 q 401 819 347 857 q 437 746 437 761 l 437 743 q 401 656 437 698 q 320 635 359 635 l 307 635 q 239 703 262 635 q 236 722 236 706 q 279 798 236 776 l 298 800 l 309 800 q 377 741 377 793 q 336 692 377 692 l 317 692 q 288 703 302 692 l 288 700 q 326 678 296 678 q 391 738 391 687 l 391 749 q 298 817 391 794 q 233 749 233 817 l 233 727 q 220 716 233 724 l 206 716 q 184 746 184 716 l 184 757 q 244 846 184 816 q 288 857 264 857 m 806 857 l 836 857 q 920 803 883 857 q 930 757 930 781 l 930 743 q 917 716 930 722 l 892 716 q 882 727 888 716 l 882 754 q 814 817 882 809 q 724 749 724 791 l 724 746 q 762 684 724 703 q 792 678 785 678 q 825 697 825 686 l 825 700 q 800 692 814 692 l 784 692 q 738 735 738 692 l 738 743 q 779 798 738 781 q 803 800 793 800 l 819 800 q 879 724 879 791 l 879 719 q 817 635 879 659 l 792 635 q 697 675 723 635 q 678 741 678 713 l 678 743 q 716 822 680 770 q 806 857 768 857 m 290 746 l 309 749 q 331 738 319 749 q 336 746 336 738 q 317 760 336 755 q 290 746 299 760 m 779 746 q 781 738 781 741 q 803 749 793 749 l 808 749 l 822 746 l 822 751 q 798 760 798 758 q 779 746 781 754 m 453 418 l 578 418 q 697 388 697 418 l 700 372 l 700 361 q 667 328 700 339 l 464 328 q 415 369 415 344 l 415 388 q 453 418 415 414 z "},"r":{"ha":1289,"x_min":0,"x_max":1185,"o":"m 537 1166 l 637 1166 q 960 1044 785 1166 q 1126 838 1090 928 q 1185 613 1185 707 l 1185 556 q 1145 374 1185 475 q 1023 179 1133 305 q 700 5 870 40 q 659 0 674 0 l 548 0 q 266 92 427 0 q 22 407 93 199 q 0 532 0 484 l 0 632 q 103 928 0 768 q 252 1072 173 1020 q 513 1164 370 1147 q 537 1166 513 1166 m 114 597 q 195 339 114 471 q 467 133 282 201 q 589 114 533 114 l 608 114 q 922 252 766 114 q 1042 453 1009 348 q 1066 578 1066 529 q 922 922 1066 776 q 686 1042 810 1021 q 578 1055 658 1050 q 239 901 398 1055 q 114 597 114 755 m 353 844 l 380 844 q 507 705 456 844 q 521 640 521 668 l 521 618 q 494 583 517 583 l 472 583 q 439 651 439 583 q 388 765 439 703 l 385 765 q 326 627 336 765 q 317 610 326 610 l 274 610 q 258 659 260 610 l 258 667 q 320 833 258 795 q 353 844 338 844 m 735 838 l 784 838 q 920 651 880 838 q 922 627 922 641 l 922 621 q 903 589 913 589 l 868 589 q 817 727 848 589 q 773 765 795 765 l 770 765 q 727 700 727 754 l 727 608 q 719 600 727 604 l 678 600 q 648 684 659 600 l 648 689 q 722 836 648 815 q 735 838 726 838 m 567 491 l 610 491 q 781 396 704 491 q 819 269 819 342 l 819 233 q 787 193 813 193 l 757 193 q 735 212 741 201 q 746 263 735 226 q 689 377 746 317 q 581 418 642 418 l 581 420 q 437 260 461 420 q 404 209 433 209 l 369 209 q 355 222 366 209 l 355 233 q 399 396 355 300 q 567 491 473 491 z "},"s":{"ha":1289,"x_min":0,"x_max":1185,"o":"m 537 1166 l 637 1166 q 960 1044 785 1166 q 1126 838 1090 928 q 1185 613 1185 707 l 1185 556 q 1145 374 1185 475 q 1023 179 1133 305 q 700 5 870 40 q 659 0 674 0 l 548 0 q 266 92 427 0 q 22 407 93 199 q 0 532 0 484 l 0 632 q 103 928 0 768 q 252 1072 173 1020 q 513 1164 370 1147 q 537 1166 513 1166 m 260 920 l 266 922 l 274 922 q 350 882 308 922 q 543 686 543 707 l 543 675 q 480 583 511 583 l 448 583 q 393 637 414 583 l 393 648 q 426 705 393 671 q 260 860 422 713 q 247 887 247 880 l 247 903 l 250 909 l 247 909 q 114 597 114 762 q 195 339 114 471 q 467 133 282 201 q 589 114 533 114 l 608 114 q 922 252 766 114 q 1042 453 1009 348 q 1066 578 1066 529 q 944 898 1066 761 q 925 857 944 873 q 762 697 923 852 q 787 646 787 671 l 787 635 q 746 583 787 599 l 719 583 q 648 686 659 583 l 648 700 q 776 825 667 732 q 868 917 809 873 q 890 925 882 925 l 917 925 q 789 1012 869 974 q 578 1055 667 1055 q 263 925 417 1055 l 260 920 m 822 540 q 933 434 879 540 q 944 388 944 407 l 944 380 q 911 339 938 339 l 887 339 q 863 396 863 350 l 860 410 l 857 410 q 749 312 857 351 q 477 193 612 269 l 458 193 q 437 228 437 213 l 437 239 q 532 309 437 275 q 749 399 568 328 q 792 442 758 404 l 822 442 q 844 431 831 442 l 844 434 q 770 467 808 467 q 751 507 751 496 l 751 513 q 800 540 751 540 l 822 540 z "},"t":{"ha":1289,"x_min":0,"x_max":1185,"o":"m 537 1166 l 637 1166 q 960 1044 785 1166 q 1126 838 1090 928 q 1185 613 1185 707 l 1185 556 q 1145 374 1185 475 q 1023 179 1133 305 q 700 5 870 40 q 659 0 674 0 l 548 0 q 266 92 427 0 q 22 407 93 199 q 0 532 0 484 l 0 632 q 103 928 0 768 q 252 1072 173 1020 q 513 1164 370 1147 q 537 1166 513 1166 m 114 597 q 195 339 114 471 q 467 133 282 201 q 589 114 533 114 l 608 114 q 922 252 766 114 q 1042 453 1009 348 q 1066 578 1066 529 q 922 922 1066 776 q 686 1042 810 1021 q 578 1055 658 1050 q 239 901 398 1055 q 114 597 114 755 m 317 806 q 518 792 518 806 q 526 773 526 782 l 526 760 q 515 727 526 757 l 515 724 q 521 673 515 719 l 521 667 q 486 627 509 627 l 461 627 q 439 662 439 640 l 439 711 q 363 730 439 720 l 331 730 q 288 724 327 730 l 279 724 q 258 746 276 724 l 258 787 q 317 806 258 801 m 662 806 l 692 806 q 722 795 706 795 l 808 795 q 860 806 848 806 l 882 806 q 922 773 922 800 l 922 757 l 903 708 q 906 684 906 693 l 906 673 q 890 643 906 652 l 863 643 q 825 692 832 643 l 825 713 q 659 724 752 721 q 637 762 637 741 l 637 776 q 662 806 637 806 m 515 469 q 667 467 606 467 q 722 445 722 463 l 722 431 q 662 393 722 393 q 486 388 656 391 q 464 415 464 398 l 464 429 q 515 469 464 456 z "},"u":{"ha":1289,"x_min":0,"x_max":1185,"o":"m 537 1166 l 637 1166 q 960 1044 785 1166 q 1126 838 1090 928 q 1185 613 1185 707 l 1185 556 q 1145 374 1185 475 q 1023 179 1133 305 q 700 5 870 40 q 659 0 674 0 l 548 0 q 266 92 427 0 q 22 407 93 199 q 0 532 0 484 l 0 632 q 103 928 0 768 q 252 1072 173 1020 q 513 1164 370 1147 q 537 1166 513 1166 m 114 597 q 195 339 114 471 q 467 133 282 201 q 589 114 533 114 l 608 114 q 922 252 766 114 q 1042 453 1009 348 q 1066 578 1066 529 q 922 922 1066 776 q 686 1042 810 1021 q 578 1055 658 1050 q 239 901 398 1055 q 114 597 114 755 m 467 806 q 499 773 499 796 l 499 760 q 464 713 499 720 l 439 713 q 418 722 431 713 l 418 578 q 401 570 415 570 l 382 570 q 361 578 363 570 l 361 727 l 345 724 l 347 719 l 347 703 q 326 453 342 453 q 274 464 274 453 l 274 727 q 184 757 184 727 q 182 765 182 757 l 182 779 q 250 803 193 803 q 467 806 349 803 m 708 806 q 895 803 828 803 l 898 803 q 990 784 977 803 l 993 770 l 993 768 q 922 730 993 730 q 901 727 920 730 l 901 467 q 849 453 901 454 q 827 697 833 453 l 827 719 l 830 724 l 814 727 l 814 581 q 806 572 814 576 l 765 572 q 757 581 761 572 l 757 722 l 754 722 q 732 713 741 713 l 711 713 q 675 760 684 713 l 675 770 q 708 806 675 794 m 602 529 l 629 529 q 792 445 723 529 q 857 307 857 333 l 857 298 q 822 252 850 252 l 798 252 q 765 285 776 252 l 765 317 q 711 418 765 363 q 602 461 656 461 l 591 461 q 437 369 495 461 q 407 258 426 349 l 399 252 l 353 252 q 334 290 341 252 l 334 304 q 388 431 342 370 q 602 529 463 529 z "},"v":{"ha":1289,"x_min":0,"x_max":1185,"o":"m 537 1166 l 637 1166 q 960 1044 785 1166 q 1126 838 1090 928 q 1185 613 1185 707 l 1185 556 q 1145 374 1185 475 q 1023 179 1133 305 q 700 5 870 40 q 659 0 674 0 l 548 0 q 266 92 427 0 q 22 407 93 199 q 0 532 0 484 l 0 632 q 92 911 0 760 q 266 1080 168 1021 q 456 1153 370 1141 q 537 1166 501 1166 m 114 597 q 195 339 114 471 q 467 133 282 201 q 589 114 533 114 l 608 114 q 922 252 766 114 q 1042 453 1009 348 q 1066 578 1066 529 q 922 922 1066 776 q 686 1042 810 1021 q 578 1055 658 1050 q 239 901 398 1055 q 114 597 114 755 m 472 887 l 502 887 q 521 846 521 878 l 521 836 q 450 662 521 751 q 380 627 415 627 l 353 627 q 266 724 295 627 q 258 806 258 760 l 258 811 q 274 860 260 860 l 317 860 q 331 789 331 856 q 391 705 347 705 q 442 852 442 768 q 472 887 446 887 m 868 882 l 903 882 q 922 849 913 882 l 922 838 q 876 689 922 797 q 784 632 830 632 l 735 632 q 651 732 674 632 q 648 776 648 760 l 648 784 q 678 871 659 871 l 719 871 q 727 863 723 871 l 727 773 q 762 705 727 725 l 770 705 q 841 841 819 705 q 868 882 859 879 m 556 572 l 589 572 q 860 439 758 572 l 890 393 q 906 410 890 397 l 949 410 q 960 377 956 410 l 960 374 q 887 274 960 337 q 838 263 859 263 l 792 263 q 741 293 764 263 q 779 342 741 342 q 819 336 812 336 l 822 342 q 727 458 804 397 q 616 486 699 475 q 562 499 578 499 q 407 423 498 499 q 353 326 353 354 l 353 323 l 355 323 l 412 331 q 445 279 433 331 q 361 258 445 269 l 336 258 q 244 323 289 258 q 231 377 231 346 l 231 385 q 252 415 231 399 l 277 415 q 307 401 294 415 q 391 507 323 443 q 556 572 473 572 z "},"w":{"ha":1289,"x_min":0,"x_max":1185,"o":"m 532 1166 l 637 1166 q 922 1072 764 1166 q 1161 751 1096 951 q 1185 608 1185 669 l 1185 551 q 1145 372 1185 479 q 928 103 1095 218 q 659 0 758 0 l 548 0 q 250 103 417 0 q 22 407 90 208 q 0 540 0 481 l 0 624 q 130 963 0 794 q 271 1082 223 1061 q 445 1153 337 1126 q 532 1166 517 1166 m 114 594 q 260 258 114 421 q 589 114 418 114 l 608 114 q 914 244 760 114 q 1047 469 1016 351 q 1066 581 1066 533 q 920 925 1066 778 q 578 1055 770 1055 q 244 906 402 1055 q 114 594 114 761 m 342 898 l 385 898 q 505 814 460 898 q 515 754 515 791 q 423 624 515 658 q 380 616 406 616 l 345 616 q 231 711 267 616 q 225 757 225 732 l 225 765 q 326 895 225 855 l 342 898 m 819 898 l 863 898 q 982 814 937 898 q 993 754 993 791 q 901 624 993 658 q 857 616 883 616 l 822 616 q 708 711 745 616 q 703 757 703 732 l 703 765 q 803 895 703 855 l 819 898 m 572 513 l 616 513 q 795 407 715 513 q 825 296 825 353 l 825 255 q 792 214 819 214 l 762 214 q 741 233 747 223 l 741 239 q 751 285 741 244 q 675 415 751 351 q 586 442 621 441 q 442 282 467 442 q 410 231 439 231 l 374 231 q 361 244 371 231 l 361 255 q 401 412 361 317 q 572 513 473 513 z "},"x":{"ha":1289,"x_min":0,"x_max":1185,"o":"m 537 1166 l 637 1166 q 960 1044 785 1166 q 1126 838 1090 928 q 1185 613 1185 707 l 1185 556 q 1145 374 1185 475 q 1023 179 1133 305 q 700 5 870 40 q 659 0 674 0 l 548 0 q 266 92 427 0 q 22 407 93 199 q 0 532 0 484 l 0 632 q 103 928 0 768 q 252 1072 173 1020 q 513 1164 370 1147 q 537 1166 513 1166 m 114 597 q 195 339 114 471 q 467 133 282 201 q 589 114 533 114 l 608 114 q 922 252 766 114 q 1042 453 1009 348 q 1066 578 1066 529 q 922 922 1066 776 q 686 1042 810 1021 q 578 1055 658 1050 q 239 901 398 1055 q 114 597 114 755 m 689 806 q 890 803 869 803 q 939 770 939 799 l 939 768 q 895 730 939 737 l 749 730 q 708 719 715 719 l 673 719 q 654 746 654 731 l 654 762 q 689 806 663 806 m 304 800 q 456 798 394 798 q 510 776 510 793 l 510 762 q 450 724 510 724 q 274 719 445 722 q 252 746 252 729 l 252 760 q 304 800 252 787 m 515 469 q 667 467 606 467 q 722 445 722 463 l 722 431 q 662 393 722 393 q 486 388 656 391 q 464 415 464 398 l 464 429 q 515 469 464 456 z "},"y":{"ha":1289,"x_min":0,"x_max":1185,"o":"m 537 1166 l 637 1166 q 960 1044 785 1166 q 1126 838 1090 928 q 1185 613 1185 707 l 1185 556 q 1145 374 1185 475 q 1023 179 1133 305 q 700 5 870 40 q 659 0 674 0 l 548 0 q 266 92 427 0 q 22 407 93 199 q 0 532 0 484 l 0 632 q 103 928 0 768 q 252 1072 174 1021 q 513 1164 370 1147 q 537 1166 513 1166 m 114 597 q 195 339 114 471 q 467 133 282 201 q 589 114 533 114 l 608 114 q 922 252 766 114 q 1042 453 1009 348 q 1066 578 1066 529 q 922 922 1066 776 q 686 1042 810 1021 q 578 1055 658 1050 q 239 901 398 1055 q 114 597 114 755 m 366 925 q 458 863 430 925 q 467 817 467 838 l 467 803 q 363 703 467 719 l 334 703 q 241 768 276 703 q 231 811 231 787 l 231 822 q 317 925 231 898 l 366 925 m 827 892 q 939 792 939 876 l 939 787 q 846 675 939 707 l 808 675 q 713 738 749 675 q 703 784 703 754 l 703 795 q 773 892 703 869 l 827 892 m 315 811 q 339 787 318 787 l 342 787 q 382 817 373 787 q 353 846 373 846 l 350 846 q 315 811 315 843 m 787 784 q 811 754 791 754 q 849 787 836 754 q 819 819 840 819 l 817 819 q 787 784 790 819 m 461 741 l 477 741 q 510 722 499 741 l 510 705 q 407 610 510 670 q 350 600 375 600 l 328 600 q 193 678 267 600 l 193 692 q 206 730 198 730 l 236 730 q 345 673 318 673 q 450 738 374 673 q 461 741 455 741 m 936 708 l 963 708 q 982 678 982 701 l 982 667 q 960 627 982 659 q 833 556 913 556 l 811 556 q 675 610 746 556 q 659 648 659 632 l 659 665 q 686 692 665 692 l 708 692 q 770 648 718 692 q 819 629 802 629 l 827 629 q 911 697 871 629 q 936 708 926 708 m 567 491 l 610 491 q 781 396 704 491 q 819 269 819 342 l 819 233 q 787 193 813 193 l 757 193 q 735 212 741 201 q 746 263 735 226 q 689 377 746 317 q 581 418 642 418 l 581 420 q 437 260 461 420 q 404 209 433 209 l 369 209 q 355 222 366 209 l 355 233 q 399 396 355 300 q 567 491 473 491 z "},"z":{"ha":1289,"x_min":0,"x_max":1185,"o":"m 537 1166 l 637 1166 q 960 1044 785 1166 q 1126 838 1090 928 q 1185 613 1185 707 l 1185 556 q 1145 374 1185 475 q 1023 179 1133 305 q 700 5 870 40 q 659 0 674 0 l 548 0 q 266 92 427 0 q 22 407 93 199 q 0 532 0 484 l 0 632 q 92 911 0 760 q 266 1080 168 1021 q 456 1153 370 1141 q 537 1166 501 1166 m 114 597 q 195 339 114 471 q 467 133 282 201 q 589 114 533 114 l 608 114 q 922 252 766 114 q 1042 453 1009 348 q 1066 578 1066 529 q 922 922 1066 776 q 686 1042 810 1021 q 578 1055 658 1050 q 239 901 398 1055 q 114 597 114 755 m 681 817 l 697 817 q 776 760 711 817 q 784 757 781 757 q 846 811 829 800 l 876 811 q 906 781 899 811 l 906 773 q 852 705 906 757 q 917 635 917 650 l 917 624 q 895 594 917 610 l 873 594 q 789 654 862 594 q 703 583 707 583 l 684 583 q 648 627 660 583 l 648 637 q 719 703 648 657 l 719 705 q 659 779 659 758 l 659 795 q 681 817 659 817 m 285 811 l 307 811 q 393 746 320 811 l 467 806 l 494 806 q 521 779 521 800 l 521 768 q 458 692 521 748 l 505 646 l 505 632 l 494 605 q 477 600 485 600 l 450 600 q 393 643 399 643 q 320 583 334 583 l 307 583 q 274 610 290 583 l 274 629 q 336 700 274 648 q 271 762 336 703 l 269 776 l 269 795 q 285 811 269 799 m 410 415 l 434 415 q 768 388 496 407 q 863 328 863 380 l 863 320 q 827 290 863 295 l 806 290 q 534 317 635 317 q 391 345 391 317 q 377 369 382 345 l 377 382 q 410 415 377 405 z "},"{":{"ha":688,"x_min":0,"x_max":0,"o":""},"|":{"ha":688,"x_min":0,"x_max":0,"o":""},"}":{"ha":688,"x_min":0,"x_max":0,"o":""},"~":{"ha":688,"x_min":0,"x_max":0,"o":""},"":{"ha":456,"x_min":0,"x_max":0,"o":""},"":{"ha":772,"x_min":0,"x_max":0,"o":""},"":{"ha":688,"x_min":0,"x_max":0,"o":""},"":{"ha":688,"x_min":0,"x_max":0,"o":""},"":{"ha":856,"x_min":0,"x_max":0,"o":""},"":{"ha":688,"x_min":0,"x_max":0,"o":""},"":{"ha":688,"x_min":0,"x_max":0,"o":""},"":{"ha":694,"x_min":0,"x_max":0,"o":""},"":{"ha":1135,"x_min":0,"x_max":0,"o":""},"":{"ha":439,"x_min":0,"x_max":0,"o":""},"":{"ha":640,"x_min":0,"x_max":0,"o":""},"":{"ha":688,"x_min":0,"x_max":0,"o":""},"":{"ha":1135,"x_min":0,"x_max":0,"o":""},"":{"ha":454,"x_min":0,"x_max":0,"o":""},"":{"ha":457,"x_min":0,"x_max":0,"o":""},"":{"ha":688,"x_min":0,"x_max":0,"o":""},"":{"ha":688,"x_min":0,"x_max":0,"o":""},"":{"ha":688,"x_min":0,"x_max":0,"o":""},"":{"ha":694,"x_min":0,"x_max":0,"o":""},"":{"ha":800,"x_min":0,"x_max":0,"o":""},"":{"ha":694,"x_min":0,"x_max":0,"o":""},"":{"ha":345,"x_min":0,"x_max":0,"o":""},"":{"ha":694,"x_min":0,"x_max":0,"o":""},"":{"ha":688,"x_min":0,"x_max":0,"o":""},"":{"ha":487,"x_min":0,"x_max":0,"o":""},"":{"ha":640,"x_min":0,"x_max":0,"o":""},"":{"ha":1158,"x_min":0,"x_max":0,"o":""},"":{"ha":1332,"x_min":0,"x_max":0,"o":""},"":{"ha":1158,"x_min":0,"x_max":0,"o":""},"":{"ha":507,"x_min":0,"x_max":0,"o":""},"":{"ha":1044,"x_min":0,"x_max":0,"o":""},"":{"ha":1044,"x_min":0,"x_max":0,"o":""},"":{"ha":1044,"x_min":0,"x_max":0,"o":""},"":{"ha":1044,"x_min":0,"x_max":0,"o":""},"":{"ha":1044,"x_min":0,"x_max":0,"o":""},"":{"ha":1044,"x_min":0,"x_max":0,"o":""},"":{"ha":1436,"x_min":0,"x_max":0,"o":""},"":{"ha":949,"x_min":0,"x_max":0,"o":""},"":{"ha":781,"x_min":0,"x_max":0,"o":""},"":{"ha":781,"x_min":0,"x_max":0,"o":""},"":{"ha":781,"x_min":0,"x_max":0,"o":""},"":{"ha":781,"x_min":0,"x_max":0,"o":""},"":{"ha":446,"x_min":0,"x_max":0,"o":""},"":{"ha":446,"x_min":0,"x_max":0,"o":""},"":{"ha":446,"x_min":0,"x_max":0,"o":""},"":{"ha":446,"x_min":0,"x_max":0,"o":""},"":{"ha":1029,"x_min":0,"x_max":0,"o":""},"":{"ha":1054,"x_min":0,"x_max":0,"o":""},"":{"ha":1095,"x_min":0,"x_max":0,"o":""},"":{"ha":1095,"x_min":0,"x_max":0,"o":""},"":{"ha":1095,"x_min":0,"x_max":0,"o":""},"":{"ha":1095,"x_min":0,"x_max":0,"o":""},"":{"ha":1095,"x_min":0,"x_max":0,"o":""},"":{"ha":688,"x_min":0,"x_max":0,"o":""},"":{"ha":1095,"x_min":0,"x_max":0,"o":""},"":{"ha":1018,"x_min":0,"x_max":0,"o":""},"":{"ha":1018,"x_min":0,"x_max":0,"o":""},"":{"ha":1018,"x_min":0,"x_max":0,"o":""},"":{"ha":1018,"x_min":0,"x_max":0,"o":""},"":{"ha":836,"x_min":0,"x_max":0,"o":""},"":{"ha":760,"x_min":0,"x_max":0,"o":""},"":{"ha":848,"x_min":0,"x_max":0,"o":""},"":{"ha":625,"x_min":0,"x_max":0,"o":""},"":{"ha":625,"x_min":0,"x_max":0,"o":""},"":{"ha":625,"x_min":0,"x_max":0,"o":""},"":{"ha":625,"x_min":0,"x_max":0,"o":""},"":{"ha":625,"x_min":0,"x_max":0,"o":""},"":{"ha":625,"x_min":0,"x_max":0,"o":""},"":{"ha":986,"x_min":0,"x_max":0,"o":""},"":{"ha":614,"x_min":0,"x_max":0,"o":""},"":{"ha":616,"x_min":0,"x_max":0,"o":""},"":{"ha":616,"x_min":0,"x_max":0,"o":""},"":{"ha":616,"x_min":0,"x_max":0,"o":""},"":{"ha":616,"x_min":0,"x_max":0,"o":""},"":{"ha":349,"x_min":0,"x_max":0,"o":""},"":{"ha":349,"x_min":0,"x_max":0,"o":""},"":{"ha":349,"x_min":0,"x_max":0,"o":""},"":{"ha":349,"x_min":0,"x_max":0,"o":""},"":{"ha":772,"x_min":0,"x_max":0,"o":""},"":{"ha":751,"x_min":0,"x_max":0,"o":""},"":{"ha":685,"x_min":0,"x_max":0,"o":""},"":{"ha":685,"x_min":0,"x_max":0,"o":""},"":{"ha":685,"x_min":0,"x_max":0,"o":""},"":{"ha":685,"x_min":0,"x_max":0,"o":""},"":{"ha":685,"x_min":0,"x_max":0,"o":""},"":{"ha":688,"x_min":0,"x_max":0,"o":""},"":{"ha":685,"x_min":0,"x_max":0,"o":""},"":{"ha":718,"x_min":0,"x_max":0,"o":""},"":{"ha":718,"x_min":0,"x_max":0,"o":""},"":{"ha":718,"x_min":0,"x_max":0,"o":""},"":{"ha":718,"x_min":0,"x_max":0,"o":""},"":{"ha":589,"x_min":0,"x_max":0,"o":""},"":{"ha":685,"x_min":0,"x_max":0,"o":""},"":{"ha":589,"x_min":0,"x_max":0,"o":""},"":{"ha":349,"x_min":0,"x_max":0,"o":""},"":{"ha":694,"x_min":0,"x_max":0,"o":""},"":{"ha":694,"x_min":0,"x_max":0,"o":""},"":{"ha":694,"x_min":0,"x_max":0,"o":""},"":{"ha":694,"x_min":0,"x_max":0,"o":""},"":{"ha":694,"x_min":0,"x_max":0,"o":""},"":{"ha":694,"x_min":0,"x_max":0,"o":""},"":{"ha":694,"x_min":0,"x_max":0,"o":""},"":{"ha":694,"x_min":0,"x_max":0,"o":""},"":{"ha":694,"x_min":0,"x_max":0,"o":""},"":{"ha":751,"x_min":0,"x_max":0,"o":""},"":{"ha":1389,"x_min":0,"x_max":0,"o":""},"":{"ha":378,"x_min":0,"x_max":0,"o":""},"":{"ha":378,"x_min":0,"x_max":0,"o":""},"":{"ha":378,"x_min":0,"x_max":0,"o":""},"":{"ha":617,"x_min":0,"x_max":0,"o":""},"":{"ha":617,"x_min":0,"x_max":0,"o":""},"":{"ha":617,"x_min":0,"x_max":0,"o":""},"":{"ha":688,"x_min":0,"x_max":0,"o":""},"":{"ha":688,"x_min":0,"x_max":0,"o":""},"":{"ha":694,"x_min":0,"x_max":0,"o":""},"":{"ha":1389,"x_min":0,"x_max":0,"o":""},"":{"ha":428,"x_min":0,"x_max":0,"o":""},"":{"ha":428,"x_min":0,"x_max":0,"o":""},"":{"ha":232,"x_min":0,"x_max":0,"o":""},"":{"ha":688,"x_min":0,"x_max":0,"o":""},"":{"ha":688,"x_min":0,"x_max":0,"o":""},"":{"ha":1375,"x_min":0,"x_max":0,"o":""},"":{"ha":688,"x_min":0,"x_max":0,"o":""},"":{"ha":1540,"x_min":0,"x_max":0,"o":""},"":{"ha":1015,"x_min":0,"x_max":0,"o":""},"":{"ha":688,"x_min":0,"x_max":0,"o":""},"":{"ha":733,"x_min":0,"x_max":0,"o":""},"":{"ha":1027,"x_min":0,"x_max":0,"o":""},"":{"ha":818,"x_min":0,"x_max":0,"o":""},"":{"ha":688,"x_min":0,"x_max":0,"o":""},"":{"ha":688,"x_min":0,"x_max":0,"o":""},"":{"ha":688,"x_min":0,"x_max":0,"o":""},"":{"ha":451,"x_min":0,"x_max":0,"o":""},"":{"ha":688,"x_min":0,"x_max":0,"o":""},"":{"ha":688,"x_min":0,"x_max":0,"o":""},"":{"ha":688,"x_min":0,"x_max":0,"o":""},"":{"ha":728,"x_min":0,"x_max":0,"o":""},"":{"ha":733,"x_min":0,"x_max":0,"o":""}}}
